<svg width="933" height="448" viewBox="0 0 933 448" fill="none" xmlns="http://www.w3.org/2000/svg">
<g filter="url(#filter0_di_1194_5770)">
<path d="M273.34 309.583V339.044C273.34 357.415 280.619 366.08 298.296 366.08C315.973 366.08 323.252 357.415 323.252 339.044V309.583H329.144C342.662 309.583 353.407 300.571 353.407 286.707C353.407 272.843 342.662 263.831 329.144 263.831H323.252V157.422C323.252 125.881 303.495 113.057 283.392 113.057C265.369 113.057 255.664 119.296 248.038 133.16L170.398 273.882C168.319 277.348 165.546 281.508 165.546 289.133C165.546 298.145 172.824 309.583 189.808 309.583H273.34ZM273.34 263.831H225.855L272.647 167.127H273.34V263.831Z" fill="white"/>
<path d="M466.447 321.021C431.093 321.021 428.667 265.217 428.667 240.608C428.667 214.266 431.093 160.195 466.447 160.195C501.801 160.195 504.227 214.266 504.227 240.608C504.227 265.217 501.801 321.021 466.447 321.021ZM466.447 368.159C536.462 368.159 558.298 297.105 558.298 240.608C558.298 184.111 536.462 113.057 466.447 113.057C396.432 113.057 374.596 184.111 374.596 240.608C374.596 297.105 396.432 368.159 466.447 368.159Z" fill="white"/>
<path d="M687.282 309.583V339.044C687.282 357.415 694.561 366.08 712.238 366.08C729.915 366.08 737.193 357.415 737.193 339.044V309.583H743.086C756.603 309.583 767.348 300.571 767.348 286.707C767.348 272.843 756.603 263.831 743.086 263.831H737.193V157.422C737.193 125.881 717.437 113.057 697.334 113.057C679.31 113.057 669.605 119.296 661.98 133.16L584.34 273.882C582.26 277.348 579.487 281.508 579.487 289.133C579.487 298.145 586.766 309.583 603.75 309.583H687.282ZM687.282 263.831H639.797L686.589 167.127H687.282V263.831Z" fill="white"/>
</g>
<g filter="url(#filter1_di_1194_5770)">
<path fill-rule="evenodd" clip-rule="evenodd" d="M281.593 301.33V339.044C281.593 347.4 283.294 351.683 285.315 353.92C287.165 355.97 290.684 357.827 298.296 357.827C305.908 357.827 309.427 355.97 311.278 353.92C313.298 351.683 314.999 347.4 314.999 339.044V301.33H329.144C338.846 301.33 345.154 295.305 345.154 286.707C345.154 278.108 338.846 272.083 329.144 272.083H314.999V157.422C314.999 143.448 310.678 134.672 305.148 129.367C299.517 123.965 291.744 121.309 283.392 121.309C275.312 121.309 269.958 122.709 265.981 125.034C262.029 127.344 258.62 131.045 255.269 137.137L177.552 278L177.475 278.128C177.371 278.301 177.269 278.471 177.167 278.639C175.276 281.777 173.798 284.23 173.798 289.133C173.798 293.672 177.467 301.33 189.808 301.33H281.593ZM281.593 272.083H212.694L267.473 158.875H281.593V272.083ZM248.038 133.16L170.398 273.882C170.287 274.067 170.174 274.254 170.06 274.444C168.03 277.802 165.546 281.915 165.546 289.133C165.546 298.145 172.824 309.583 189.808 309.583H273.34V339.044C273.34 357.415 280.619 366.08 298.296 366.08C315.973 366.08 323.252 357.415 323.252 339.044V309.583H329.144C342.662 309.583 353.407 300.571 353.407 286.707C353.407 272.843 342.662 263.831 329.144 263.831H323.252V157.422C323.252 125.881 303.495 113.057 283.392 113.057C265.368 113.057 255.664 119.296 248.038 133.16ZM273.34 167.127H272.647L225.855 263.831H273.34V167.127ZM426.384 292.379C420.996 274.125 420.414 252.991 420.414 240.608C420.414 227.387 420.992 206.223 426.392 188.159C429.099 179.106 433.206 170.16 439.642 163.376C446.303 156.354 455.208 151.943 466.447 151.943C477.686 151.943 486.591 156.354 493.252 163.376C499.688 170.16 503.795 179.106 506.502 188.159C511.902 206.223 512.48 227.387 512.48 240.608C512.48 252.991 511.898 274.125 506.51 292.379C503.812 301.517 499.723 310.607 493.321 317.523C486.693 324.682 477.774 329.273 466.447 329.273C455.12 329.273 446.201 324.682 439.573 317.523C433.171 310.607 429.081 301.517 426.384 292.379ZM531.466 321.47C544.715 298.325 550.045 268.016 550.045 240.608C550.045 213.201 544.715 182.891 531.466 159.746C518.465 137.034 498.006 121.309 466.447 121.309C434.888 121.309 414.429 137.034 401.428 159.746C388.179 182.891 382.849 213.201 382.849 240.608C382.849 268.016 388.179 298.325 401.428 321.47C414.429 344.183 434.888 359.907 466.447 359.907C498.006 359.907 518.465 344.183 531.466 321.47ZM695.535 301.33V339.044C695.535 347.4 697.236 351.683 699.256 353.92C701.107 355.97 704.626 357.827 712.238 357.827C719.85 357.827 723.369 355.97 725.219 353.92C727.24 351.683 728.941 347.4 728.941 339.044V301.33H743.086C752.787 301.33 759.096 295.305 759.096 286.707C759.096 278.108 752.787 272.083 743.086 272.083H728.941V157.422C728.941 143.448 724.62 134.672 719.089 129.367C713.458 123.965 705.686 121.309 697.334 121.309C689.253 121.309 683.899 122.709 679.922 125.034C675.971 127.344 672.561 131.045 669.211 137.137L591.493 278L591.416 278.128C591.313 278.301 591.21 278.471 591.109 278.639C589.218 281.777 587.74 284.23 587.74 289.133C587.74 293.672 591.409 301.33 603.75 301.33H695.535ZM695.535 272.083H626.636L681.414 158.875H695.535V272.083ZM687.282 167.127H686.589L639.797 263.831H687.282V167.127ZM428.667 240.608C428.667 265.217 431.093 321.021 466.447 321.021C501.801 321.021 504.227 265.217 504.227 240.608C504.227 214.266 501.801 160.195 466.447 160.195C431.093 160.195 428.667 214.266 428.667 240.608ZM558.298 240.608C558.298 297.105 536.462 368.159 466.447 368.159C396.432 368.159 374.596 297.105 374.596 240.608C374.596 184.111 396.432 113.057 466.447 113.057C536.462 113.057 558.298 184.111 558.298 240.608ZM687.282 309.583H603.75C586.766 309.583 579.487 298.145 579.487 289.133C579.487 281.915 581.972 277.802 584.001 274.444C584.116 274.254 584.229 274.067 584.34 273.882L661.98 133.16C669.605 119.296 679.31 113.057 697.334 113.057C717.437 113.057 737.193 125.881 737.193 157.422V263.831H743.086C756.603 263.831 767.348 272.843 767.348 286.707C767.348 300.571 756.603 309.583 743.086 309.583H737.193V339.044C737.193 357.415 729.915 366.08 712.238 366.08C694.561 366.08 687.282 357.415 687.282 339.044V309.583Z" fill="#DA738D"/>
</g>
<g filter="url(#filter2_if_1194_5770)">
<path d="M273.34 309.583V339.044C273.34 357.415 280.619 366.08 298.296 366.08C315.973 366.08 323.252 357.415 323.252 339.044V309.583H329.144C342.662 309.583 353.407 300.571 353.407 286.707C353.407 272.843 342.662 263.831 329.144 263.831H323.252V157.422C323.252 125.881 303.495 113.057 283.392 113.057C265.369 113.057 255.664 119.296 248.038 133.16L170.398 273.882C168.319 277.348 165.546 281.508 165.546 289.133C165.546 298.145 172.824 309.583 189.808 309.583H273.34ZM273.34 263.831H225.855L272.647 167.127H273.34V263.831Z" fill="white"/>
<path d="M273.34 309.583V339.044C273.34 357.415 280.619 366.08 298.296 366.08C315.973 366.08 323.252 357.415 323.252 339.044V309.583H329.144C342.662 309.583 353.407 300.571 353.407 286.707C353.407 272.843 342.662 263.831 329.144 263.831H323.252V157.422C323.252 125.881 303.495 113.057 283.392 113.057C265.369 113.057 255.664 119.296 248.038 133.16L170.398 273.882C168.319 277.348 165.546 281.508 165.546 289.133C165.546 298.145 172.824 309.583 189.808 309.583H273.34ZM273.34 263.831H225.855L272.647 167.127H273.34V263.831Z" fill="#FFD3D9" fill-opacity="0.2"/>
<path d="M466.447 321.021C431.093 321.021 428.667 265.217 428.667 240.608C428.667 214.266 431.093 160.195 466.447 160.195C501.801 160.195 504.227 214.266 504.227 240.608C504.227 265.217 501.801 321.021 466.447 321.021ZM466.447 368.159C536.462 368.159 558.298 297.105 558.298 240.608C558.298 184.111 536.462 113.057 466.447 113.057C396.432 113.057 374.596 184.111 374.596 240.608C374.596 297.105 396.432 368.159 466.447 368.159Z" fill="white"/>
<path d="M466.447 321.021C431.093 321.021 428.667 265.217 428.667 240.608C428.667 214.266 431.093 160.195 466.447 160.195C501.801 160.195 504.227 214.266 504.227 240.608C504.227 265.217 501.801 321.021 466.447 321.021ZM466.447 368.159C536.462 368.159 558.298 297.105 558.298 240.608C558.298 184.111 536.462 113.057 466.447 113.057C396.432 113.057 374.596 184.111 374.596 240.608C374.596 297.105 396.432 368.159 466.447 368.159Z" fill="#FFD3D9" fill-opacity="0.2"/>
<path d="M687.282 309.583V339.044C687.282 357.415 694.561 366.08 712.238 366.08C729.915 366.08 737.193 357.415 737.193 339.044V309.583H743.086C756.603 309.583 767.348 300.571 767.348 286.707C767.348 272.843 756.603 263.831 743.086 263.831H737.193V157.422C737.193 125.881 717.437 113.057 697.334 113.057C679.31 113.057 669.605 119.296 661.98 133.16L584.34 273.882C582.26 277.348 579.487 281.508 579.487 289.133C579.487 298.145 586.766 309.583 603.75 309.583H687.282ZM687.282 263.831H639.797L686.589 167.127H687.282V263.831Z" fill="white"/>
<path d="M687.282 309.583V339.044C687.282 357.415 694.561 366.08 712.238 366.08C729.915 366.08 737.193 357.415 737.193 339.044V309.583H743.086C756.603 309.583 767.348 300.571 767.348 286.707C767.348 272.843 756.603 263.831 743.086 263.831H737.193V157.422C737.193 125.881 717.437 113.057 697.334 113.057C679.31 113.057 669.605 119.296 661.98 133.16L584.34 273.882C582.26 277.348 579.487 281.508 579.487 289.133C579.487 298.145 586.766 309.583 603.75 309.583H687.282ZM687.282 263.831H639.797L686.589 167.127H687.282V263.831Z" fill="#FFD3D9" fill-opacity="0.2"/>
</g>
<g filter="url(#filter3_if_1194_5770)">
<path fill-rule="evenodd" clip-rule="evenodd" d="M282.772 300.151V339.044C282.772 347.282 284.456 351.21 286.19 353.13C287.729 354.835 290.859 356.648 298.296 356.648C305.733 356.648 308.863 354.835 310.402 353.13C312.136 351.21 313.82 347.282 313.82 339.044V300.151H329.144C338.301 300.151 343.975 294.553 343.975 286.707C343.975 278.861 338.301 273.262 329.144 273.262H313.82V157.422C313.82 143.705 309.587 135.26 304.331 130.218C298.961 125.066 291.501 122.488 283.392 122.488C275.445 122.488 270.316 123.865 266.576 126.052C262.864 128.221 259.587 131.733 256.302 137.705L256.296 137.716L178.574 278.588L178.486 278.735C178.373 278.923 178.264 279.104 178.159 279.279C177.166 280.928 176.516 282.009 175.971 283.397C175.433 284.765 174.977 286.543 174.977 289.133C174.977 293.033 178.13 300.151 189.808 300.151H282.772ZM282.772 273.262H210.814L266.733 157.696H282.772V273.262ZM248.038 133.16L170.398 273.882C170.287 274.067 170.174 274.254 170.06 274.444C168.03 277.802 165.546 281.915 165.546 289.133C165.546 298.145 172.824 309.583 189.808 309.583H273.34V339.044C273.34 357.415 280.619 366.08 298.296 366.08C315.973 366.08 323.252 357.415 323.252 339.044V309.583H329.144C342.662 309.583 353.407 300.571 353.407 286.707C353.407 272.843 342.662 263.831 329.144 263.831H323.252V157.422C323.252 125.881 303.495 113.057 283.392 113.057C265.368 113.057 255.664 119.296 248.038 133.16ZM273.34 167.127H272.647L225.855 263.831H273.34V167.127ZM425.253 292.713C419.814 274.284 419.235 253.002 419.235 240.608C419.235 227.38 419.809 206.064 425.263 187.822C427.997 178.676 432.174 169.535 438.786 162.564C445.656 155.322 454.865 150.763 466.447 150.763C478.029 150.763 487.238 155.322 494.108 162.564C500.72 169.535 504.897 178.676 507.631 187.822C513.085 206.064 513.659 227.38 513.659 240.608C513.659 253.002 513.08 274.284 507.641 292.713C504.917 301.94 500.761 311.223 494.186 318.324C487.355 325.704 478.129 330.453 466.447 330.453C454.764 330.453 445.539 325.704 438.708 318.324C432.133 311.223 427.977 301.94 425.253 292.713ZM530.442 320.885C543.554 297.979 548.866 267.895 548.866 240.608C548.866 213.321 543.554 183.237 530.442 160.332C517.614 137.921 497.513 122.488 466.447 122.488C435.381 122.488 415.28 137.921 402.452 160.332C389.34 183.237 384.028 213.321 384.028 240.608C384.028 267.895 389.34 297.979 402.452 320.885C415.28 343.295 435.381 358.728 466.447 358.728C497.513 358.728 517.614 343.295 530.442 320.885ZM696.714 300.151V339.044C696.714 347.282 698.398 351.21 700.131 353.13C701.671 354.835 704.801 356.648 712.238 356.648C719.674 356.648 722.805 354.835 724.344 353.13C726.078 351.21 727.762 347.282 727.762 339.044V300.151H743.086C752.242 300.151 757.917 294.553 757.917 286.707C757.917 278.861 752.242 273.262 743.086 273.262H727.762V157.422C727.762 143.705 723.529 135.26 718.273 130.218C712.902 125.066 705.443 122.488 697.334 122.488C689.386 122.488 684.258 123.865 680.518 126.052C676.806 128.221 673.529 131.733 670.244 137.705L670.238 137.716L592.515 278.588L592.427 278.735C592.314 278.923 592.205 279.104 592.1 279.279C591.108 280.928 590.457 282.009 589.912 283.397C589.375 284.765 588.919 286.543 588.919 289.133C588.919 293.033 592.072 300.151 603.75 300.151H696.714ZM696.714 273.262H624.755L680.675 157.696H696.714V273.262ZM661.98 133.16L584.34 273.882C584.229 274.067 584.116 274.254 584.001 274.444C581.972 277.802 579.487 281.915 579.487 289.133C579.487 298.145 586.766 309.583 603.75 309.583H687.282V339.044C687.282 357.415 694.561 366.08 712.238 366.08C729.915 366.08 737.193 357.415 737.193 339.044V309.583H743.086C756.603 309.583 767.348 300.571 767.348 286.707C767.348 272.843 756.603 263.831 743.086 263.831H737.193V157.422C737.193 125.881 717.437 113.057 697.334 113.057C679.31 113.057 669.605 119.296 661.98 133.16ZM687.282 167.127H686.589L639.797 263.831H687.282V167.127ZM428.667 240.608C428.667 265.217 431.093 321.021 466.447 321.021C501.801 321.021 504.227 265.217 504.227 240.608C504.227 214.266 501.801 160.195 466.447 160.195C431.093 160.195 428.667 214.266 428.667 240.608ZM558.298 240.608C558.298 297.105 536.462 368.159 466.447 368.159C396.432 368.159 374.596 297.105 374.596 240.608C374.596 184.111 396.432 113.057 466.447 113.057C536.462 113.057 558.298 184.111 558.298 240.608Z" fill="#F26E90"/>
</g>
<defs>
<filter id="filter0_di_1194_5770" x="115.546" y="63.0566" width="701.802" height="355.103" filterUnits="userSpaceOnUse" color-interpolation-filters="sRGB">
<feFlood flood-opacity="0" result="BackgroundImageFix"/>
<feColorMatrix in="SourceAlpha" type="matrix" values="0 0 0 0 0 0 0 0 0 0 0 0 0 0 0 0 0 0 127 0" result="hardAlpha"/>
<feOffset/>
<feGaussianBlur stdDeviation="25"/>
<feComposite in2="hardAlpha" operator="out"/>
<feColorMatrix type="matrix" values="0 0 0 0 1 0 0 0 0 0.413636 0 0 0 0 0.561993 0 0 0 0.6 0"/>
<feBlend mode="normal" in2="BackgroundImageFix" result="effect1_dropShadow_1194_5770"/>
<feBlend mode="normal" in="SourceGraphic" in2="effect1_dropShadow_1194_5770" result="shape"/>
<feColorMatrix in="SourceAlpha" type="matrix" values="0 0 0 0 0 0 0 0 0 0 0 0 0 0 0 0 0 0 127 0" result="hardAlpha"/>
<feOffset/>
<feGaussianBlur stdDeviation="20.6314"/>
<feComposite in2="hardAlpha" operator="arithmetic" k2="-1" k3="1"/>
<feColorMatrix type="matrix" values="0 0 0 0 0.904463 0 0 0 0 0.170614 0 0 0 0 0.449683 0 0 0 1 0"/>
<feBlend mode="normal" in2="shape" result="effect2_innerShadow_1194_5770"/>
</filter>
<filter id="filter1_di_1194_5770" x="115.546" y="63.0566" width="701.802" height="355.103" filterUnits="userSpaceOnUse" color-interpolation-filters="sRGB">
<feFlood flood-opacity="0" result="BackgroundImageFix"/>
<feColorMatrix in="SourceAlpha" type="matrix" values="0 0 0 0 0 0 0 0 0 0 0 0 0 0 0 0 0 0 127 0" result="hardAlpha"/>
<feOffset/>
<feGaussianBlur stdDeviation="25"/>
<feComposite in2="hardAlpha" operator="out"/>
<feColorMatrix type="matrix" values="0 0 0 0 1 0 0 0 0 0.413636 0 0 0 0 0.561993 0 0 0 0.6 0"/>
<feBlend mode="normal" in2="BackgroundImageFix" result="effect1_dropShadow_1194_5770"/>
<feBlend mode="normal" in="SourceGraphic" in2="effect1_dropShadow_1194_5770" result="shape"/>
<feColorMatrix in="SourceAlpha" type="matrix" values="0 0 0 0 0 0 0 0 0 0 0 0 0 0 0 0 0 0 127 0" result="hardAlpha"/>
<feOffset/>
<feGaussianBlur stdDeviation="20.6314"/>
<feComposite in2="hardAlpha" operator="arithmetic" k2="-1" k3="1"/>
<feColorMatrix type="matrix" values="0 0 0 0 0.904463 0 0 0 0 0.170614 0 0 0 0 0.449683 0 0 0 1 0"/>
<feBlend mode="normal" in2="shape" result="effect2_innerShadow_1194_5770"/>
</filter>
<filter id="filter2_if_1194_5770" x="147.888" y="95.3987" width="637.118" height="290.419" filterUnits="userSpaceOnUse" color-interpolation-filters="sRGB">
<feFlood flood-opacity="0" result="BackgroundImageFix"/>
<feBlend mode="normal" in="SourceGraphic" in2="BackgroundImageFix" result="shape"/>
<feColorMatrix in="SourceAlpha" type="matrix" values="0 0 0 0 0 0 0 0 0 0 0 0 0 0 0 0 0 0 127 0" result="hardAlpha"/>
<feOffset/>
<feGaussianBlur stdDeviation="67.3695"/>
<feComposite in2="hardAlpha" operator="arithmetic" k2="-1" k3="1"/>
<feColorMatrix type="matrix" values="0 0 0 0 0.913725 0 0 0 0 0.509804 0 0 0 0 0.607843 0 0 0 0.4 0"/>
<feBlend mode="normal" in2="shape" result="effect1_innerShadow_1194_5770"/>
<feGaussianBlur stdDeviation="8.82895" result="effect2_foregroundBlur_1194_5770"/>
</filter>
<filter id="filter3_if_1194_5770" x="147.888" y="95.3987" width="637.118" height="290.419" filterUnits="userSpaceOnUse" color-interpolation-filters="sRGB">
<feFlood flood-opacity="0" result="BackgroundImageFix"/>
<feBlend mode="normal" in="SourceGraphic" in2="BackgroundImageFix" result="shape"/>
<feColorMatrix in="SourceAlpha" type="matrix" values="0 0 0 0 0 0 0 0 0 0 0 0 0 0 0 0 0 0 127 0" result="hardAlpha"/>
<feOffset/>
<feGaussianBlur stdDeviation="67.3695"/>
<feComposite in2="hardAlpha" operator="arithmetic" k2="-1" k3="1"/>
<feColorMatrix type="matrix" values="0 0 0 0 0.913725 0 0 0 0 0.509804 0 0 0 0 0.607843 0 0 0 0.4 0"/>
<feBlend mode="normal" in2="shape" result="effect1_innerShadow_1194_5770"/>
<feGaussianBlur stdDeviation="8.82895" result="effect2_foregroundBlur_1194_5770"/>
</filter>
</defs>
</svg>
