<svg width="17" height="16" viewBox="0 0 17 16" fill="none" xmlns="http://www.w3.org/2000/svg">
<path d="M8.88679 0C4.46905 0 0.886719 3.67232 0.886719 8.20254C0.886719 11.8266 3.17898 14.9013 6.35765 15.9859C6.75747 16.0618 6.90426 15.808 6.90426 15.5913C6.90426 15.3957 6.89684 14.7496 6.89339 14.0642C4.66777 14.5604 4.19813 13.0964 4.19813 13.0964C3.83422 12.1483 3.30987 11.8962 3.30987 11.8962C2.58402 11.3871 3.36458 11.3975 3.36458 11.3975C4.16793 11.4554 4.59093 12.2428 4.59093 12.2428C5.30445 13.4968 6.46244 13.1343 6.91896 12.9247C6.99076 12.3945 7.19809 12.0327 7.42688 11.8279C5.64996 11.6204 3.78202 10.9171 3.78202 7.77413C3.78202 6.8786 4.09454 6.14688 4.6063 5.57245C4.52323 5.36585 4.2494 4.53158 4.6838 3.40174C4.6838 3.40174 5.35559 3.18129 6.88438 4.24253C7.52253 4.06079 8.20691 3.96965 8.88679 3.96652C9.56666 3.96965 10.2516 4.06079 10.8909 4.24253C12.4178 3.18129 13.0887 3.40174 13.0887 3.40174C13.5242 4.53158 13.2502 5.36585 13.1671 5.57245C13.6801 6.14688 13.9905 6.8786 13.9905 7.77413C13.9905 10.9246 12.119 11.6183 10.3375 11.8213C10.6245 12.0759 10.8802 12.5751 10.8802 13.3403C10.8802 14.4378 10.8709 15.3211 10.8709 15.5913C10.8709 15.8096 11.0149 16.0654 11.4204 15.9848C14.5974 14.899 16.8867 11.8254 16.8867 8.20254C16.8867 3.67232 13.3049 0 8.88679 0" fill="#9E9CB4"/>
</svg>
