<svg width="253" height="144" viewBox="0 0 253 144" fill="none" xmlns="http://www.w3.org/2000/svg">
<g filter="url(#filter0)">
<path d="M17.0494 56.4466C17.5382 58.4994 19.1511 60.259 21.8882 60.259C24.2831 60.259 26.1404 58.6949 26.7269 56.691L32.3966 37.8248H32.4943L38.164 56.691C38.7505 58.6949 40.6078 60.259 43.0027 60.259C45.7398 60.259 47.3527 58.4994 47.8414 56.4466L54.0487 29.7602C54.1954 29.1248 54.2442 28.7827 54.2442 28.0984C54.2442 26.5343 52.9246 24.8726 50.774 24.8726C48.428 24.8726 47.3038 26.2411 46.8639 28.3916L42.7094 49.164H42.6117L36.2578 27.7563C35.7201 25.9967 34.2539 24.8726 32.4454 24.8726C30.637 24.8726 29.1707 25.9967 28.6331 27.7563L22.2792 49.164H22.1814L18.0269 28.3916C17.5871 26.2411 16.4629 24.8726 14.1168 24.8726C11.9663 24.8726 10.6466 26.5343 10.6466 28.0984C10.6466 28.7827 10.6955 29.1248 10.8421 29.7602L17.0494 56.4466ZM57.9646 56.4466C57.9646 58.8904 59.5286 60.259 61.6303 60.259C63.732 60.259 65.296 58.8904 65.296 56.4466V45.7916H80.6432V56.4466C80.6432 58.8904 82.2072 60.259 84.3089 60.259C86.4106 60.259 87.9746 58.8904 87.9746 56.4466V28.6849C87.9746 26.2411 86.4106 24.8726 84.3089 24.8726C82.2072 24.8726 80.6432 26.2411 80.6432 28.6849V39.0467H65.296V28.6849C65.296 26.2411 63.732 24.8726 61.6303 24.8726C59.5286 24.8726 57.9646 26.2411 57.9646 28.6849V56.4466ZM93.4984 56.3C93.4984 58.4994 95.1114 59.9657 97.2619 59.9657H109.872C112.169 59.9657 113.342 58.255 113.342 56.5932C113.342 54.8826 112.218 53.2208 109.872 53.2208H100.83V45.7916H108.846C111.192 45.7916 112.414 44.0809 112.414 42.4191C112.414 40.7085 111.241 39.0467 108.846 39.0467H100.83V31.9107H109.432C111.729 31.9107 112.902 30.2001 112.902 28.5383C112.902 26.8276 111.778 25.1658 109.432 25.1658H97.3108C94.7203 25.1658 93.4984 26.9742 93.4984 29.418V56.3ZM117.243 56.4466C117.243 58.8904 118.807 60.259 120.909 60.259C123.01 60.259 124.574 58.8904 124.574 56.4466V45.8405H124.672L135.523 58.9882C136.305 59.9168 137.478 60.259 138.357 60.259C140.508 60.259 142.023 58.4017 142.023 56.4955C142.023 55.8112 141.73 55.0781 141.046 54.3449L132.737 45.4495C137.722 44.6674 141.779 41.5882 141.779 36.2118C141.779 28.5383 137.135 25.1658 129.608 25.1658H121.006C118.562 25.1658 117.243 26.6321 117.243 28.9782V56.4466ZM124.574 31.9107H129.608C132.297 31.9107 134.154 33.4259 134.154 36.2118C134.154 38.9489 132.297 40.5618 129.608 40.5618H124.574V31.9107ZM145.522 56.3C145.522 58.4994 147.134 59.9657 149.285 59.9657H161.895C164.192 59.9657 165.365 58.255 165.365 56.5932C165.365 54.8826 164.241 53.2208 161.895 53.2208H152.853V45.7916H160.869C163.215 45.7916 164.437 44.0809 164.437 42.4191C164.437 40.7085 163.264 39.0467 160.869 39.0467H152.853V31.9107H161.455C163.752 31.9107 164.925 30.2001 164.925 28.5383C164.925 26.8276 163.801 25.1658 161.455 25.1658H149.334C146.743 25.1658 145.522 26.9742 145.522 29.418V56.3ZM18.3202 106.447C18.3202 108.89 19.8842 110.259 21.9859 110.259C24.0876 110.259 25.6516 108.89 25.6516 106.447V81.9107H30.9791C33.3252 81.9107 34.3027 80.2001 34.3027 78.5383C34.3027 76.8276 33.0808 75.1658 30.9791 75.1658H12.9927C10.891 75.1658 9.6691 76.8276 9.6691 78.5383C9.6691 80.2001 10.6466 81.9107 12.9927 81.9107H18.3202V106.447ZM52.5034 103.807C46.2962 103.807 43.3147 98.5287 43.3147 92.5658C43.3147 86.6517 46.3939 81.3242 52.5034 81.3242C58.613 81.3242 61.6922 86.6517 61.6922 92.5658C61.6922 98.5287 58.7107 103.807 52.5034 103.807ZM52.5034 110.552C62.5231 110.552 69.3169 102.683 69.3169 92.5658C69.3169 82.6439 62.3276 74.5793 52.5034 74.5793C42.5327 74.5793 35.69 82.3995 35.69 92.5658C35.69 102.683 42.5816 110.552 52.5034 110.552ZM92.2441 106.447C92.7329 108.499 94.3458 110.259 97.0829 110.259C99.4778 110.259 101.335 108.695 101.922 106.691L107.591 87.8248H107.689L113.359 106.691C113.945 108.695 115.802 110.259 118.197 110.259C120.934 110.259 122.547 108.499 123.036 106.447L129.243 79.7602C129.39 79.1248 129.439 78.7827 129.439 78.0984C129.439 76.5343 128.119 74.8726 125.969 74.8726C123.623 74.8726 122.499 76.2411 122.059 78.3916L117.904 99.164H117.806L111.452 77.7563C110.915 75.9967 109.449 74.8726 107.64 74.8726C105.832 74.8726 104.365 75.9967 103.828 77.7563L97.4739 99.164H97.3761L93.2216 78.3916C92.7818 76.2411 91.6576 74.8726 89.3115 74.8726C87.161 74.8726 85.8413 76.5343 85.8413 78.0984C85.8413 78.7827 85.8902 79.1248 86.0368 79.7602L92.2441 106.447ZM128.727 105.225C128.629 105.469 128.385 106.056 128.385 106.838C128.385 108.793 130.047 110.259 132.002 110.259C134.005 110.259 135.032 109.184 135.521 107.669L136.987 103.123H150.575L152.041 107.717C152.53 109.184 153.556 110.259 155.609 110.259C157.417 110.259 158.981 108.939 158.981 107.033C158.981 106.691 158.883 106.007 158.59 105.225L149.01 78.636C148.18 76.29 146.371 74.5793 143.781 74.5793C141.288 74.5793 139.382 76.3877 138.551 78.636L128.727 105.225ZM143.732 82.204H143.83L148.375 96.3781H139.089L143.732 82.204ZM163.771 106.447C163.771 108.89 165.335 110.259 167.437 110.259C169.539 110.259 171.103 108.89 171.103 106.447V81.9107H176.43C178.776 81.9107 179.754 80.2001 179.754 78.5383C179.754 76.8276 178.532 75.1658 176.43 75.1658H158.444C156.342 75.1658 155.12 76.8276 155.12 78.5383C155.12 80.2001 156.098 81.9107 158.444 81.9107H163.771V106.447ZM181.141 92.5658C181.141 102.683 188.033 110.552 197.954 110.552C201.571 110.552 208.952 109.477 208.952 104.785C208.952 103.661 207.925 101.461 205.726 101.461C203.722 101.461 202.06 103.514 197.954 103.514C191.943 103.514 188.766 98.5287 188.766 92.7124C188.766 86.7495 191.894 81.6175 197.954 81.6175C202.06 81.6175 203.429 83.3281 205.432 83.3281C207.241 83.3281 208.463 81.813 208.463 80.0534C208.463 75.7523 201.522 74.5793 197.954 74.5793C187.984 74.5793 181.141 82.3995 181.141 92.5658ZM213.509 106.447C213.509 108.89 215.073 110.259 217.175 110.259C219.276 110.259 220.84 108.89 220.84 106.447V95.7916H236.188V106.447C236.188 108.89 237.752 110.259 239.853 110.259C241.955 110.259 243.519 108.89 243.519 106.447V78.6849C243.519 76.2411 241.955 74.8726 239.853 74.8726C237.752 74.8726 236.188 76.2411 236.188 78.6849V89.0467H220.84V78.6849C220.84 76.2411 219.276 74.8726 217.175 74.8726C215.073 74.8726 213.509 76.2411 213.509 78.6849V106.447Z" fill="white"/>
<path d="M17.0494 56.4466L15.9159 56.7103L15.9173 56.7161L17.0494 56.4466ZM26.7269 56.691L25.6124 56.3561L25.61 56.3641L26.7269 56.691ZM32.3966 37.8248V36.661H31.5311L31.2821 37.4898L32.3966 37.8248ZM32.4943 37.8248L33.6088 37.4898L33.3597 36.661H32.4943V37.8248ZM38.164 56.691L39.2808 56.3641L39.2784 56.3561L38.164 56.691ZM47.8414 56.4466L48.9735 56.7162L48.9749 56.7103L47.8414 56.4466ZM54.0487 29.7602L55.1822 30.0238L55.1826 30.0219L54.0487 29.7602ZM46.8639 28.3916L45.7238 28.1584L45.7228 28.1634L46.8639 28.3916ZM42.7094 49.164V50.3278H43.6635L43.8506 49.3923L42.7094 49.164ZM42.6117 49.164L41.4961 49.4952L41.7432 50.3278H42.6117V49.164ZM36.2578 27.7563L37.3734 27.4251L37.3707 27.4162L36.2578 27.7563ZM28.6331 27.7563L27.5201 27.4162L27.5175 27.4251L28.6331 27.7563ZM22.2792 49.164V50.3278H23.1477L23.3948 49.4952L22.2792 49.164ZM22.1814 49.164L21.0403 49.3923L21.2274 50.3278H22.1814V49.164ZM18.0269 28.3916L19.1681 28.1634L19.1671 28.1584L18.0269 28.3916ZM10.8421 29.7602L9.70821 30.0219L9.70867 30.0238L10.8421 29.7602ZM15.9173 56.7161C16.5103 59.2066 18.528 61.4227 21.8882 61.4227V59.0952C19.7742 59.0952 18.5661 57.7923 18.1815 56.1771L15.9173 56.7161ZM21.8882 61.4227C24.8209 61.4227 27.1181 59.4974 27.8438 57.0179L25.61 56.3641C25.1627 57.8925 23.7453 59.0952 21.8882 59.0952V61.4227ZM27.8414 57.0259L33.511 38.1597L31.2821 37.4898L25.6124 56.3561L27.8414 57.0259ZM32.3966 38.9885H32.4943V36.661H32.3966V38.9885ZM31.3798 38.1597L37.0495 57.0259L39.2784 56.3561L33.6088 37.4898L31.3798 38.1597ZM37.0471 57.0179C37.7728 59.4974 40.07 61.4227 43.0027 61.4227V59.0952C41.1455 59.0952 39.7281 57.8925 39.2808 56.3641L37.0471 57.0179ZM43.0027 61.4227C46.3629 61.4227 48.3806 59.2066 48.9735 56.7161L46.7094 56.1771C46.3248 57.7923 45.1167 59.0952 43.0027 59.0952V61.4227ZM48.9749 56.7103L55.1822 30.0238L52.9153 29.4965L46.708 56.183L48.9749 56.7103ZM55.1826 30.0219C55.3462 29.3132 55.408 28.8827 55.408 28.0984H53.0805C53.0805 28.6826 53.0445 28.9364 52.9148 29.4985L55.1826 30.0219ZM55.408 28.0984C55.408 25.9139 53.5893 23.7088 50.774 23.7088V26.0363C52.2598 26.0363 53.0805 27.1548 53.0805 28.0984H55.408ZM50.774 23.7088C49.3582 23.7088 48.1795 24.1306 47.2935 24.9907C46.4345 25.8247 45.9697 26.9565 45.7238 28.1584L48.004 28.6249C48.1981 27.6763 48.5153 27.0485 48.9148 26.6606C49.2874 26.2988 49.8438 26.0363 50.774 26.0363V23.7088ZM45.7228 28.1634L41.5683 48.9358L43.8506 49.3923L48.005 28.6199L45.7228 28.1634ZM42.7094 48.0003H42.6117V50.3278H42.7094V48.0003ZM43.7273 48.8329L37.3734 27.4251L35.1422 28.0874L41.4961 49.4952L43.7273 48.8329ZM37.3707 27.4162C36.6905 25.1901 34.7891 23.7088 32.4454 23.7088V26.0363C33.7186 26.0363 34.7498 26.8033 35.1448 28.0963L37.3707 27.4162ZM32.4454 23.7088C30.1018 23.7088 28.2003 25.1901 27.5202 27.4162L29.746 28.0963C30.1411 26.8033 31.1722 26.0363 32.4454 26.0363V23.7088ZM27.5175 27.4251L21.1636 48.8329L23.3948 49.4952L29.7487 28.0874L27.5175 27.4251ZM22.2792 48.0003H22.1814V50.3278H22.2792V48.0003ZM23.3225 48.9358L19.1681 28.1634L16.8858 28.6199L21.0403 49.3923L23.3225 48.9358ZM19.1671 28.1584C18.9212 26.9565 18.4564 25.8247 17.5973 24.9907C16.7114 24.1306 15.5327 23.7088 14.1168 23.7088V26.0363C15.0471 26.0363 15.6034 26.2988 15.9761 26.6606C16.3756 27.0485 16.6928 27.6763 16.8868 28.6249L19.1671 28.1584ZM14.1168 23.7088C11.3015 23.7088 9.48291 25.9139 9.48291 28.0984H11.8103C11.8103 27.1548 12.631 26.0363 14.1168 26.0363V23.7088ZM9.48291 28.0984C9.48291 28.8827 9.54467 29.3132 9.70821 30.0219L11.976 29.4985C11.8463 28.9364 11.8103 28.6826 11.8103 28.0984H9.48291ZM9.70867 30.0238L15.916 56.7103L18.1829 56.183L11.9756 29.4965L9.70867 30.0238ZM65.296 45.7916V44.6279H64.1323V45.7916H65.296ZM80.6432 45.7916H81.8069V44.6279H80.6432V45.7916ZM80.6432 39.0467V40.2104H81.8069V39.0467H80.6432ZM65.296 39.0467H64.1323V40.2104H65.296V39.0467ZM56.8009 56.4466C56.8009 57.9238 57.2796 59.1937 58.1903 60.0959C59.0967 60.9938 60.3254 61.4227 61.6303 61.4227V59.0952C60.8336 59.0952 60.2294 58.8398 59.8283 58.4425C59.4316 58.0495 59.1283 57.4132 59.1283 56.4466H56.8009ZM61.6303 61.4227C62.9353 61.4227 64.1639 60.9938 65.0703 60.0959C65.981 59.1937 66.4598 57.9238 66.4598 56.4466H64.1323C64.1323 57.4132 63.829 58.0495 63.4323 58.4425C63.0312 58.8398 62.427 59.0952 61.6303 59.0952V61.4227ZM66.4598 56.4466V45.7916H64.1323V56.4466H66.4598ZM65.296 46.9553H80.6432V44.6279H65.296V46.9553ZM79.4795 45.7916V56.4466H81.8069V45.7916H79.4795ZM79.4795 56.4466C79.4795 57.9238 79.9582 59.1937 80.8689 60.0959C81.7753 60.9938 83.0039 61.4227 84.3089 61.4227V59.0952C83.5122 59.0952 82.908 58.8398 82.5069 58.4425C82.1102 58.0495 81.8069 57.4132 81.8069 56.4466H79.4795ZM84.3089 61.4227C85.6139 61.4227 86.8425 60.9938 87.7489 60.0959C88.6596 59.1937 89.1383 57.9238 89.1383 56.4466H86.8109C86.8109 57.4132 86.5076 58.0495 86.1109 58.4425C85.7098 58.8398 85.1056 59.0952 84.3089 59.0952V61.4227ZM89.1383 56.4466V28.6849H86.8109V56.4466H89.1383ZM89.1383 28.6849C89.1383 27.2077 88.6596 25.9378 87.7489 25.0356C86.8425 24.1377 85.6139 23.7088 84.3089 23.7088V26.0363C85.1056 26.0363 85.7098 26.2917 86.1109 26.689C86.5076 27.082 86.8109 27.7183 86.8109 28.6849H89.1383ZM84.3089 23.7088C83.0039 23.7088 81.7753 24.1377 80.8689 25.0356C79.9582 25.9378 79.4795 27.2077 79.4795 28.6849H81.8069C81.8069 27.7183 82.1102 27.082 82.5069 26.689C82.908 26.2917 83.5122 26.0363 84.3089 26.0363V23.7088ZM79.4795 28.6849V39.0467H81.8069V28.6849H79.4795ZM80.6432 37.8829H65.296V40.2104H80.6432V37.8829ZM66.4598 39.0467V28.6849H64.1323V39.0467H66.4598ZM66.4598 28.6849C66.4598 27.2077 65.981 25.9378 65.0703 25.0356C64.1639 24.1377 62.9353 23.7088 61.6303 23.7088V26.0363C62.427 26.0363 63.0312 26.2917 63.4323 26.689C63.829 27.082 64.1323 27.7183 64.1323 28.6849H66.4598ZM61.6303 23.7088C60.3254 23.7088 59.0967 24.1377 58.1903 25.0356C57.2796 25.9378 56.8009 27.2077 56.8009 28.6849H59.1283C59.1283 27.7183 59.4316 27.082 59.8283 26.689C60.2294 26.2917 60.8336 26.0363 61.6303 26.0363V23.7088ZM56.8009 28.6849V56.4466H59.1283V28.6849H56.8009ZM100.83 53.2208H99.6662V54.3845H100.83V53.2208ZM100.83 45.7916V44.6279H99.6662V45.7916H100.83ZM100.83 39.0467H99.6662V40.2104H100.83V39.0467ZM100.83 31.9107V30.747H99.6662V31.9107H100.83ZM92.3347 56.3C92.3347 57.697 92.8536 58.9244 93.7702 59.7994C94.6811 60.6689 95.9198 61.1294 97.2619 61.1294V58.802C96.4534 58.802 95.8104 58.5293 95.3772 58.1158C94.9498 57.7078 94.6622 57.1024 94.6622 56.3H92.3347ZM97.2619 61.1294H109.872V58.802H97.2619V61.1294ZM109.872 61.1294C111.332 61.1294 112.517 60.5753 113.328 59.6875C114.121 58.8189 114.506 57.6881 114.506 56.5932H112.178C112.178 57.1601 111.977 57.7156 111.609 58.1178C111.259 58.5008 110.709 58.802 109.872 58.802V61.1294ZM114.506 56.5932C114.506 55.4919 114.144 54.3553 113.346 53.481C112.531 52.5875 111.34 52.0571 109.872 52.0571V54.3845C110.75 54.3845 111.294 54.685 111.627 55.05C111.978 55.4342 112.178 55.9839 112.178 56.5932H114.506ZM109.872 52.0571H100.83V54.3845H109.872V52.0571ZM101.994 53.2208V45.7916H99.6662V53.2208H101.994ZM100.83 46.9553H108.846V44.6279H100.83V46.9553ZM108.846 46.9553C111.899 46.9553 113.577 44.6575 113.577 42.4191H111.25C111.25 43.5043 110.485 44.6279 108.846 44.6279V46.9553ZM113.577 42.4191C113.577 41.3044 113.195 40.1644 112.375 39.2936C111.54 38.4069 110.329 37.8829 108.846 37.8829V40.2104C109.757 40.2104 110.33 40.5173 110.68 40.8892C111.046 41.277 111.25 41.8232 111.25 42.4191H113.577ZM108.846 37.8829H100.83V40.2104H108.846V37.8829ZM101.994 39.0467V31.9107H99.6662V39.0467H101.994ZM100.83 33.0745H109.432V30.747H100.83V33.0745ZM109.432 33.0745C110.892 33.0745 112.077 32.5203 112.888 31.6325C113.681 30.7639 114.066 29.6332 114.066 28.5383H111.739C111.739 29.1052 111.537 29.6606 111.169 30.0628C110.82 30.4458 110.269 30.747 109.432 30.747V33.0745ZM114.066 28.5383C114.066 27.4369 113.704 26.3004 112.907 25.4261C112.091 24.5325 110.9 24.0021 109.432 24.0021V26.3295C110.31 26.3295 110.854 26.63 111.187 26.995C111.538 27.3793 111.739 27.9289 111.739 28.5383H114.066ZM109.432 24.0021H97.3108V26.3295H109.432V24.0021ZM97.3108 24.0021C95.7217 24.0021 94.4197 24.5705 93.538 25.6319C92.6833 26.661 92.3347 28.0187 92.3347 29.418H94.6622C94.6622 28.3735 94.9246 27.6052 95.3284 27.1191C95.7053 26.6653 96.3094 26.3295 97.3108 26.3295V24.0021ZM92.3347 29.418V56.3H94.6622V29.418H92.3347ZM124.574 45.8405V44.6767H123.411V45.8405H124.574ZM124.672 45.8405L125.57 45.0997L125.22 44.6767H124.672V45.8405ZM135.523 58.9882L134.625 59.7289L134.632 59.7378L135.523 58.9882ZM141.046 54.3449L141.896 53.5509L141.896 53.5506L141.046 54.3449ZM132.737 45.4495L132.556 44.2998L130.388 44.6399L131.886 46.2438L132.737 45.4495ZM124.574 31.9107V30.747H123.411V31.9107H124.574ZM124.574 40.5618H123.411V41.7256H124.574V40.5618ZM116.079 56.4466C116.079 57.9238 116.558 59.1937 117.469 60.0959C118.375 60.9938 119.604 61.4227 120.909 61.4227V59.0952C120.112 59.0952 119.508 58.8398 119.107 58.4425C118.71 58.0495 118.407 57.4132 118.407 56.4466H116.079ZM120.909 61.4227C122.213 61.4227 123.442 60.9938 124.348 60.0959C125.259 59.1937 125.738 57.9238 125.738 56.4466H123.411C123.411 57.4132 123.107 58.0495 122.71 58.4425C122.309 58.8398 121.705 59.0952 120.909 59.0952V61.4227ZM125.738 56.4466V45.8405H123.411V56.4466H125.738ZM124.574 47.0042H124.672V44.6767H124.574V47.0042ZM123.774 46.5812L134.625 59.7289L136.42 58.2475L125.57 45.0997L123.774 46.5812ZM134.632 59.7378C135.69 60.9942 137.23 61.4227 138.357 61.4227V59.0952C137.725 59.0952 136.919 58.8394 136.413 58.2386L134.632 59.7378ZM138.357 61.4227C141.238 61.4227 143.187 58.9533 143.187 56.4955H140.859C140.859 57.8501 139.778 59.0952 138.357 59.0952V61.4227ZM143.187 56.4955C143.187 55.4537 142.734 54.4488 141.896 53.5509L140.195 55.139C140.725 55.7073 140.859 56.1687 140.859 56.4955H143.187ZM141.896 53.5506L133.587 44.6551L131.886 46.2438L140.195 55.1393L141.896 53.5506ZM132.917 46.5991C135.581 46.1812 138.077 45.1384 139.924 43.4013C141.794 41.6429 142.942 39.2228 142.942 36.2118H140.615C140.615 38.5773 139.735 40.3849 138.33 41.7057C136.903 43.0479 134.878 43.9357 132.556 44.2998L132.917 46.5991ZM142.942 36.2118C142.942 32.1324 141.699 29.0074 139.274 26.9279C136.881 24.8761 133.522 24.0021 129.608 24.0021V26.3295C133.222 26.3295 135.948 27.1418 137.759 28.6946C139.537 30.2197 140.615 32.6177 140.615 36.2118H142.942ZM129.608 24.0021H121.006V26.3295H129.608V24.0021ZM121.006 24.0021C119.549 24.0021 118.275 24.4451 117.37 25.385C116.471 26.318 116.079 27.5925 116.079 28.9782H118.407C118.407 28.0177 118.674 27.3861 119.046 26.9994C119.412 26.6197 120.02 26.3295 121.006 26.3295V24.0021ZM116.079 28.9782V56.4466H118.407V28.9782H116.079ZM124.574 33.0745H129.608V30.747H124.574V33.0745ZM129.608 33.0745C130.741 33.0745 131.572 33.3923 132.107 33.8779C132.626 34.3492 132.99 35.0907 132.99 36.2118H135.318C135.318 34.5471 134.754 33.1379 133.672 32.1552C132.606 31.1867 131.164 30.747 129.608 30.747V33.0745ZM132.99 36.2118C132.99 37.305 132.627 38.0669 132.096 38.5616C131.554 39.0663 130.723 39.3981 129.608 39.3981V41.7256C131.182 41.7256 132.624 41.2509 133.682 40.2648C134.752 39.2689 135.318 37.8558 135.318 36.2118H132.99ZM129.608 39.3981H124.574V41.7256H129.608V39.3981ZM125.738 40.5618V31.9107H123.411V40.5618H125.738ZM152.853 53.2208H151.689V54.3845H152.853V53.2208ZM152.853 45.7916V44.6279H151.689V45.7916H152.853ZM152.853 39.0467H151.689V40.2104H152.853V39.0467ZM152.853 31.9107V30.747H151.689V31.9107H152.853ZM144.358 56.3C144.358 57.697 144.877 58.9244 145.793 59.7994C146.704 60.6689 147.943 61.1294 149.285 61.1294V58.802C148.477 58.802 147.834 58.5293 147.4 58.1158C146.973 57.7078 146.685 57.1024 146.685 56.3H144.358ZM149.285 61.1294H161.895V58.802H149.285V61.1294ZM161.895 61.1294C163.355 61.1294 164.54 60.5753 165.351 59.6875C166.144 58.8189 166.529 57.6881 166.529 56.5932H164.202C164.202 57.1601 164 57.7156 163.632 58.1178C163.283 58.5008 162.732 58.802 161.895 58.802V61.1294ZM166.529 56.5932C166.529 55.4919 166.167 54.3553 165.37 53.481C164.554 52.5875 163.363 52.0571 161.895 52.0571V54.3845C162.773 54.3845 163.317 54.685 163.65 55.05C164.001 55.4342 164.202 55.9839 164.202 56.5932H166.529ZM161.895 52.0571H152.853V54.3845H161.895V52.0571ZM154.017 53.2208V45.7916H151.689V53.2208H154.017ZM152.853 46.9553H160.869V44.6279H152.853V46.9553ZM160.869 46.9553C163.922 46.9553 165.6 44.6575 165.6 42.4191H163.273C163.273 43.5043 162.508 44.6279 160.869 44.6279V46.9553ZM165.6 42.4191C165.6 41.3044 165.218 40.1644 164.398 39.2936C163.563 38.4069 162.353 37.8829 160.869 37.8829V40.2104C161.78 40.2104 162.353 40.5173 162.704 40.8892C163.069 41.277 163.273 41.8232 163.273 42.4191H165.6ZM160.869 37.8829H152.853V40.2104H160.869V37.8829ZM154.017 39.0467V31.9107H151.689V39.0467H154.017ZM152.853 33.0745H161.455V30.747H152.853V33.0745ZM161.455 33.0745C162.915 33.0745 164.1 32.5203 164.911 31.6325C165.704 30.7639 166.089 29.6332 166.089 28.5383H163.762C163.762 29.1052 163.56 29.6606 163.193 30.0628C162.843 30.4458 162.292 30.747 161.455 30.747V33.0745ZM166.089 28.5383C166.089 27.4369 165.728 26.3004 164.93 25.4261C164.114 24.5325 162.923 24.0021 161.455 24.0021V26.3295C162.333 26.3295 162.877 26.63 163.211 26.995C163.561 27.3793 163.762 27.9289 163.762 28.5383H166.089ZM161.455 24.0021H149.334V26.3295H161.455V24.0021ZM149.334 24.0021C147.745 24.0021 146.443 24.5705 145.561 25.6319C144.706 26.661 144.358 28.0187 144.358 29.418H146.685C146.685 28.3735 146.948 27.6052 147.351 27.1191C147.728 26.6653 148.333 26.3295 149.334 26.3295V24.0021ZM144.358 29.418V56.3H146.685V29.418H144.358ZM25.6516 81.9107V80.747H24.4879V81.9107H25.6516ZM18.3202 81.9107H19.4839V80.747H18.3202V81.9107ZM17.1565 106.447C17.1565 107.924 17.6352 109.194 18.5459 110.096C19.4523 110.994 20.681 111.423 21.9859 111.423V109.095C21.1892 109.095 20.585 108.84 20.1839 108.442C19.7872 108.049 19.4839 107.413 19.4839 106.447H17.1565ZM21.9859 111.423C23.2909 111.423 24.5195 110.994 25.4259 110.096C26.3366 109.194 26.8154 107.924 26.8154 106.447H24.4879C24.4879 107.413 24.1846 108.049 23.7879 108.442C23.3868 108.84 22.7826 109.095 21.9859 109.095V111.423ZM26.8154 106.447V81.9107H24.4879V106.447H26.8154ZM25.6516 83.0745H30.9791V80.747H25.6516V83.0745ZM30.9791 83.0745C32.463 83.0745 33.6308 82.5192 34.4091 81.5994C35.1614 80.7103 35.4664 79.5813 35.4664 78.5383H33.139C33.139 79.157 32.9553 79.7143 32.6323 80.096C32.3354 80.4469 31.8414 80.747 30.9791 80.747V83.0745ZM35.4664 78.5383C35.4664 76.2996 33.8325 74.0021 30.9791 74.0021V76.3295C32.3292 76.3295 33.139 77.3557 33.139 78.5383H35.4664ZM30.9791 74.0021H12.9927V76.3295H30.9791V74.0021ZM12.9927 74.0021C10.1393 74.0021 8.50538 76.2996 8.50538 78.5383H10.8328C10.8328 77.3557 11.6427 76.3295 12.9927 76.3295V74.0021ZM8.50538 78.5383C8.50538 79.5813 8.81044 80.7103 9.56275 81.5994C10.3411 82.5192 11.5088 83.0745 12.9927 83.0745V80.747C12.1305 80.747 11.6364 80.4469 11.3395 80.096C11.0165 79.7143 10.8328 79.157 10.8328 78.5383H8.50538ZM12.9927 83.0745H18.3202V80.747H12.9927V83.0745ZM17.1565 81.9107V106.447H19.4839V81.9107H17.1565ZM52.5034 102.644C49.7764 102.644 47.8242 101.505 46.5183 99.7324C45.1826 97.9193 44.4784 95.3723 44.4784 92.5658H42.151C42.151 95.7221 42.9375 98.7958 44.6444 101.113C46.381 103.47 49.0233 104.971 52.5034 104.971V102.644ZM44.4784 92.5658C44.4784 89.7929 45.2027 87.2438 46.5533 85.4197C47.877 83.6318 49.8336 82.4879 52.5034 82.4879V80.1605C49.0638 80.1605 46.4259 81.6804 44.6827 84.0347C42.9663 86.353 42.151 89.4245 42.151 92.5658H44.4784ZM52.5034 82.4879C55.1733 82.4879 57.1298 83.6318 58.4536 85.4197C59.8042 87.2438 60.5285 89.7929 60.5285 92.5658H62.8559C62.8559 89.4245 62.0406 86.353 60.3241 84.0347C58.5809 81.6804 55.9431 80.1605 52.5034 80.1605V82.4879ZM60.5285 92.5658C60.5285 95.3723 59.8243 97.9193 58.4886 99.7324C57.1826 101.505 55.2305 102.644 52.5034 102.644V104.971C55.9836 104.971 58.6259 103.47 60.3625 101.113C62.0694 98.7958 62.8559 95.7221 62.8559 92.5658H60.5285ZM52.5034 111.716C63.2632 111.716 70.4806 103.224 70.4806 92.5658H68.1532C68.1532 102.142 61.783 109.388 52.5034 109.388V111.716ZM70.4806 92.5658C70.4806 82.1023 63.0669 73.4156 52.5034 73.4156V75.743C61.5882 75.743 68.1532 83.1855 68.1532 92.5658H70.4806ZM52.5034 73.4156C41.7967 73.4156 34.5263 81.8542 34.5263 92.5658H36.8537C36.8537 82.9448 43.2686 75.743 52.5034 75.743V73.4156ZM34.5263 92.5658C34.5263 103.229 41.8458 111.716 52.5034 111.716V109.388C43.3173 109.388 36.8537 102.138 36.8537 92.5658H34.5263ZM92.2441 106.447L91.1106 106.71L91.112 106.716L92.2441 106.447ZM101.922 106.691L100.807 106.356L100.805 106.364L101.922 106.691ZM107.591 87.8248V86.661H106.726L106.477 87.4898L107.591 87.8248ZM107.689 87.8248L108.803 87.4898L108.554 86.661H107.689V87.8248ZM113.359 106.691L114.476 106.364L114.473 106.356L113.359 106.691ZM123.036 106.447L124.168 106.716L124.17 106.71L123.036 106.447ZM129.243 79.7602L130.377 80.0238L130.377 80.0219L129.243 79.7602ZM122.059 78.3916L120.919 78.1584L120.918 78.1634L122.059 78.3916ZM117.904 99.164V100.328H118.858L119.045 99.3923L117.904 99.164ZM117.806 99.164L116.691 99.4952L116.938 100.328H117.806V99.164ZM111.452 77.7563L112.568 77.4251L112.565 77.4162L111.452 77.7563ZM103.828 77.7563L102.715 77.4162L102.712 77.4251L103.828 77.7563ZM97.4739 99.164V100.328H98.3424L98.5895 99.4952L97.4739 99.164ZM97.3761 99.164L96.235 99.3923L96.4221 100.328H97.3761V99.164ZM93.2216 78.3916L94.3628 78.1634L94.3618 78.1584L93.2216 78.3916ZM86.0368 79.7602L84.9029 80.0219L84.9034 80.0238L86.0368 79.7602ZM91.112 106.716C91.705 109.207 93.7227 111.423 97.0829 111.423V109.095C94.9689 109.095 93.7608 107.792 93.3762 106.177L91.112 106.716ZM97.0829 111.423C100.016 111.423 102.313 109.497 103.038 107.018L100.805 106.364C100.357 107.892 98.94 109.095 97.0829 109.095V111.423ZM103.036 107.026L108.706 88.1597L106.477 87.4898L100.807 106.356L103.036 107.026ZM107.591 88.9885H107.689V86.661H107.591V88.9885ZM106.575 88.1597L112.244 107.026L114.473 106.356L108.803 87.4898L106.575 88.1597ZM112.242 107.018C112.967 109.497 115.265 111.423 118.197 111.423V109.095C116.34 109.095 114.923 107.892 114.476 106.364L112.242 107.018ZM118.197 111.423C121.558 111.423 123.575 109.207 124.168 106.716L121.904 106.177C121.52 107.792 120.311 109.095 118.197 109.095V111.423ZM124.17 106.71L130.377 80.0238L128.11 79.4965L121.903 106.183L124.17 106.71ZM130.377 80.0219C130.541 79.3132 130.603 78.8827 130.603 78.0984H128.275C128.275 78.6826 128.239 78.9364 128.11 79.4985L130.377 80.0219ZM130.603 78.0984C130.603 75.9139 128.784 73.7088 125.969 73.7088V76.0363C127.455 76.0363 128.275 77.1548 128.275 78.0984H130.603ZM125.969 73.7088C124.553 73.7088 123.374 74.1306 122.488 74.9907C121.629 75.8247 121.164 76.9565 120.919 78.1584L123.199 78.6249C123.393 77.6763 123.71 77.0485 124.109 76.6606C124.482 76.2988 125.038 76.0363 125.969 76.0363V73.7088ZM120.918 78.1634L116.763 98.9358L119.045 99.3923L123.2 78.6199L120.918 78.1634ZM117.904 98.0003H117.806V100.328H117.904V98.0003ZM118.922 98.8329L112.568 77.4251L110.337 78.0874L116.691 99.4952L118.922 98.8329ZM112.565 77.4162C111.885 75.1901 109.984 73.7088 107.64 73.7088V76.0363C108.913 76.0363 109.944 76.8033 110.34 78.0963L112.565 77.4162ZM107.64 73.7088C105.297 73.7088 103.395 75.1901 102.715 77.4162L104.941 78.0963C105.336 76.8033 106.367 76.0363 107.64 76.0363V73.7088ZM102.712 77.4251L96.3583 98.8329L98.5895 99.4952L104.943 78.0874L102.712 77.4251ZM97.4739 98.0003H97.3761V100.328H97.4739V98.0003ZM98.5172 98.9358L94.3628 78.1634L92.0805 78.6199L96.235 99.3923L98.5172 98.9358ZM94.3618 78.1584C94.1159 76.9565 93.6511 75.8247 92.792 74.9907C91.9061 74.1306 90.7274 73.7088 89.3115 73.7088V76.0363C90.2418 76.0363 90.7982 76.2988 91.1708 76.6606C91.5703 77.0485 91.8875 77.6763 92.0815 78.6249L94.3618 78.1584ZM89.3115 73.7088C86.4962 73.7088 84.6776 75.9139 84.6776 78.0984H87.0051C87.0051 77.1548 87.8258 76.0363 89.3115 76.0363V73.7088ZM84.6776 78.0984C84.6776 78.8827 84.7394 79.3132 84.9029 80.0219L87.1708 79.4985C87.041 78.9364 87.0051 78.6826 87.0051 78.0984H84.6776ZM84.9034 80.0238L91.1107 106.71L93.3776 106.183L87.1703 79.4965L84.9034 80.0238ZM128.727 105.225L129.807 105.657L129.813 105.643L129.818 105.628L128.727 105.225ZM135.521 107.669L134.413 107.311L134.413 107.311L135.521 107.669ZM136.987 103.123V101.959H136.14L135.879 102.766L136.987 103.123ZM150.575 103.123L151.683 102.769L151.425 101.959H150.575V103.123ZM152.041 107.717L150.932 108.071L150.934 108.078L150.937 108.085L152.041 107.717ZM158.59 105.225L157.495 105.619L157.498 105.626L157.501 105.633L158.59 105.225ZM149.01 78.636L147.914 79.0245L147.916 79.0305L149.01 78.636ZM138.551 78.636L137.459 78.2326L137.459 78.2327L138.551 78.636ZM143.732 82.204V81.0403H142.888L142.626 81.8417L143.732 82.204ZM143.83 82.204L144.938 81.8486L144.679 81.0403H143.83V82.204ZM148.375 96.3781V97.5418H149.97L149.483 96.0227L148.375 96.3781ZM139.089 96.3781L137.983 96.0158L137.483 97.5418H139.089V96.3781ZM127.646 104.793C127.542 105.052 127.221 105.817 127.221 106.838H129.548C129.548 106.294 129.716 105.886 129.807 105.657L127.646 104.793ZM127.221 106.838C127.221 109.518 129.49 111.423 132.002 111.423V109.095C130.603 109.095 129.548 108.067 129.548 106.838H127.221ZM132.002 111.423C133.223 111.423 134.251 111.09 135.06 110.438C135.855 109.797 136.337 108.928 136.628 108.026L134.413 107.311C134.215 107.925 133.94 108.351 133.599 108.626C133.271 108.89 132.784 109.095 132.002 109.095V111.423ZM136.628 108.026L138.094 103.48L135.879 102.766L134.413 107.311L136.628 108.026ZM136.987 104.287H150.575V101.959H136.987V104.287ZM149.466 103.477L150.932 108.071L153.149 107.364L151.683 102.769L149.466 103.477ZM150.937 108.085C151.23 108.965 151.716 109.82 152.518 110.452C153.333 111.093 154.369 111.423 155.609 111.423V109.095C154.795 109.095 154.292 108.887 153.958 108.624C153.612 108.352 153.34 107.936 153.145 107.349L150.937 108.085ZM155.609 111.423C157.968 111.423 160.145 109.671 160.145 107.033H157.818C157.818 108.208 156.867 109.095 155.609 109.095V111.423ZM160.145 107.033C160.145 106.53 160.014 105.707 159.68 104.816L157.501 105.633C157.753 106.307 157.818 106.852 157.818 107.033H160.145ZM159.685 104.83L150.105 78.2416L147.916 79.0305L157.495 105.619L159.685 104.83ZM150.107 78.2475C149.159 75.5708 146.993 73.4156 143.781 73.4156V75.743C145.75 75.743 147.2 77.0091 147.914 79.0245L150.107 78.2475ZM143.781 73.4156C140.659 73.4156 138.404 75.6764 137.459 78.2326L139.643 79.0394C140.36 77.099 141.917 75.743 143.781 75.743V73.4156ZM137.459 78.2327L127.635 104.821L129.818 105.628L139.643 79.0394L137.459 78.2327ZM143.732 83.3677H143.83V81.0403H143.732V83.3677ZM142.721 82.5594L147.267 96.7335L149.483 96.0227L144.938 81.8486L142.721 82.5594ZM148.375 95.2144H139.089V97.5418H148.375V95.2144ZM140.195 96.7404L144.838 82.5663L142.626 81.8417L137.983 96.0158L140.195 96.7404ZM171.103 81.9107V80.747H169.939V81.9107H171.103ZM163.771 81.9107H164.935V80.747H163.771V81.9107ZM162.607 106.447C162.607 107.924 163.086 109.194 163.997 110.096C164.903 110.994 166.132 111.423 167.437 111.423V109.095C166.64 109.095 166.036 108.84 165.635 108.442C165.238 108.049 164.935 107.413 164.935 106.447H162.607ZM167.437 111.423C168.742 111.423 169.97 110.994 170.877 110.096C171.788 109.194 172.266 107.924 172.266 106.447H169.939C169.939 107.413 169.636 108.049 169.239 108.442C168.838 108.84 168.234 109.095 167.437 109.095V111.423ZM172.266 106.447V81.9107H169.939V106.447H172.266ZM171.103 83.0745H176.43V80.747H171.103V83.0745ZM176.43 83.0745C177.914 83.0745 179.082 82.5192 179.86 81.5994C180.612 80.7103 180.917 79.5813 180.917 78.5383H178.59C178.59 79.157 178.406 79.7143 178.083 80.096C177.786 80.4469 177.292 80.747 176.43 80.747V83.0745ZM180.917 78.5383C180.917 76.2996 179.283 74.0021 176.43 74.0021V76.3295C177.78 76.3295 178.59 77.3557 178.59 78.5383H180.917ZM176.43 74.0021H158.444V76.3295H176.43V74.0021ZM158.444 74.0021C155.59 74.0021 153.956 76.2996 153.956 78.5383H156.284C156.284 77.3557 157.094 76.3295 158.444 76.3295V74.0021ZM153.956 78.5383C153.956 79.5813 154.261 80.7103 155.014 81.5994C155.792 82.5192 156.96 83.0745 158.444 83.0745V80.747C157.581 80.747 157.087 80.4469 156.79 80.096C156.467 79.7143 156.284 79.157 156.284 78.5383H153.956ZM158.444 83.0745H163.771V80.747H158.444V83.0745ZM162.607 81.9107V106.447H164.935V81.9107H162.607ZM179.977 92.5658C179.977 103.229 187.297 111.716 197.954 111.716V109.388C188.768 109.388 182.305 102.138 182.305 92.5658H179.977ZM197.954 111.716C199.842 111.716 202.743 111.439 205.215 110.519C207.632 109.619 210.115 107.898 210.115 104.785H207.788C207.788 106.364 206.581 107.526 204.403 108.337C202.282 109.127 199.683 109.388 197.954 109.388V111.716ZM210.115 104.785C210.115 103.94 209.757 102.864 209.086 101.992C208.385 101.082 207.264 100.298 205.726 100.298V102.625C206.387 102.625 206.878 102.94 207.241 103.411C207.633 103.92 207.788 104.505 207.788 104.785H210.115ZM205.726 100.298C205.024 100.298 204.393 100.478 203.827 100.695C203.298 100.898 202.682 101.195 202.164 101.421C201.065 101.899 199.788 102.35 197.954 102.35V104.678C200.226 104.678 201.833 104.103 203.093 103.555C203.753 103.267 204.186 103.051 204.66 102.869C205.098 102.701 205.426 102.625 205.726 102.625V100.298ZM197.954 102.35C195.308 102.35 193.348 101.27 192.022 99.5767C190.671 97.8526 189.929 95.4232 189.929 92.7124H187.602C187.602 95.8178 188.448 98.7892 190.189 101.012C191.955 103.265 194.589 104.678 197.954 104.678V102.35ZM189.929 92.7124C189.929 89.918 190.664 87.4108 192.014 85.6324C193.338 83.8885 195.295 82.7812 197.954 82.7812V80.4538C194.553 80.4538 191.916 81.9125 190.16 84.2253C188.431 86.5036 187.602 89.5438 187.602 92.7124H189.929ZM197.954 82.7812C199.82 82.7812 201.043 83.164 202.062 83.5582C203.015 83.9268 204.149 84.4919 205.432 84.4919V82.1644C204.712 82.1644 204.16 81.8742 202.901 81.3874C201.709 80.9263 200.194 80.4538 197.954 80.4538V82.7812ZM205.432 84.4919C208.01 84.4919 209.627 82.3216 209.627 80.0534H207.299C207.299 81.3044 206.472 82.1644 205.432 82.1644V84.4919ZM209.627 80.0534C209.627 77.1322 207.245 75.4862 204.961 74.616C202.608 73.7195 199.83 73.4156 197.954 73.4156V75.743C199.647 75.743 202.123 76.0257 204.132 76.7909C206.21 77.5825 207.299 78.6736 207.299 80.0534H209.627ZM197.954 73.4156C187.248 73.4156 179.977 81.8542 179.977 92.5658H182.305C182.305 82.9448 188.72 75.743 197.954 75.743V73.4156ZM220.84 95.7916V94.6279H219.677V95.7916H220.84ZM236.188 95.7916H237.351V94.6279H236.188V95.7916ZM236.188 89.0467V90.2104H237.351V89.0467H236.188ZM220.84 89.0467H219.677V90.2104H220.84V89.0467ZM212.345 106.447C212.345 107.924 212.824 109.194 213.735 110.096C214.641 110.994 215.87 111.423 217.175 111.423V109.095C216.378 109.095 215.774 108.84 215.373 108.442C214.976 108.049 214.673 107.413 214.673 106.447H212.345ZM217.175 111.423C218.48 111.423 219.708 110.994 220.615 110.096C221.525 109.194 222.004 107.924 222.004 106.447H219.677C219.677 107.413 219.373 108.049 218.977 108.442C218.576 108.84 217.971 109.095 217.175 109.095V111.423ZM222.004 106.447V95.7916H219.677V106.447H222.004ZM220.84 96.9553H236.188V94.6279H220.84V96.9553ZM235.024 95.7916V106.447H237.351V95.7916H235.024ZM235.024 106.447C235.024 107.924 235.503 109.194 236.413 110.096C237.32 110.994 238.548 111.423 239.853 111.423V109.095C239.057 109.095 238.452 108.84 238.051 108.442C237.655 108.049 237.351 107.413 237.351 106.447H235.024ZM239.853 111.423C241.158 111.423 242.387 110.994 243.293 110.096C244.204 109.194 244.683 107.924 244.683 106.447H242.355C242.355 107.413 242.052 108.049 241.655 108.442C241.254 108.84 240.65 109.095 239.853 109.095V111.423ZM244.683 106.447V78.6849H242.355V106.447H244.683ZM244.683 78.6849C244.683 77.2077 244.204 75.9378 243.293 75.0356C242.387 74.1377 241.158 73.7088 239.853 73.7088V76.0363C240.65 76.0363 241.254 76.2917 241.655 76.689C242.052 77.082 242.355 77.7183 242.355 78.6849H244.683ZM239.853 73.7088C238.548 73.7088 237.32 74.1377 236.413 75.0356C235.503 75.9378 235.024 77.2077 235.024 78.6849H237.351C237.351 77.7183 237.655 77.082 238.051 76.689C238.452 76.2917 239.057 76.0363 239.853 76.0363V73.7088ZM235.024 78.6849V89.0467H237.351V78.6849H235.024ZM236.188 87.8829H220.84V90.2104H236.188V87.8829ZM222.004 89.0467V78.6849H219.677V89.0467H222.004ZM222.004 78.6849C222.004 77.2077 221.525 75.9378 220.615 75.0356C219.708 74.1377 218.48 73.7088 217.175 73.7088V76.0363C217.971 76.0363 218.576 76.2917 218.977 76.689C219.373 77.082 219.677 77.7183 219.677 78.6849H222.004ZM217.175 73.7088C215.87 73.7088 214.641 74.1377 213.735 75.0356C212.824 75.9378 212.345 77.2077 212.345 78.6849H214.673C214.673 77.7183 214.976 77.082 215.373 76.689C215.774 76.2917 216.378 76.0363 217.175 76.0363V73.7088ZM212.345 78.6849V106.447H214.673V78.6849H212.345Z" fill="#DA738D"/>
</g>
<g filter="url(#filter1_if_920:5590)">
<path d="M17.0494 56.4466C17.5382 58.4994 19.1511 60.259 21.8882 60.259C24.2831 60.259 26.1404 58.6949 26.7269 56.691L32.3966 37.8248H32.4943L38.164 56.691C38.7505 58.6949 40.6078 60.259 43.0027 60.259C45.7398 60.259 47.3527 58.4994 47.8414 56.4466L54.0487 29.7602C54.1954 29.1248 54.2442 28.7827 54.2442 28.0984C54.2442 26.5343 52.9246 24.8726 50.774 24.8726C48.428 24.8726 47.3038 26.2411 46.8639 28.3916L42.7094 49.164H42.6117L36.2578 27.7563C35.7201 25.9967 34.2539 24.8726 32.4454 24.8726C30.637 24.8726 29.1707 25.9967 28.6331 27.7563L22.2792 49.164H22.1814L18.0269 28.3916C17.5871 26.2411 16.4629 24.8726 14.1168 24.8726C11.9663 24.8726 10.6466 26.5343 10.6466 28.0984C10.6466 28.7827 10.6955 29.1248 10.8421 29.7602L17.0494 56.4466ZM57.9646 56.4466C57.9646 58.8904 59.5286 60.259 61.6303 60.259C63.732 60.259 65.296 58.8904 65.296 56.4466V45.7916H80.6432V56.4466C80.6432 58.8904 82.2072 60.259 84.3089 60.259C86.4106 60.259 87.9746 58.8904 87.9746 56.4466V28.6849C87.9746 26.2411 86.4106 24.8726 84.3089 24.8726C82.2072 24.8726 80.6432 26.2411 80.6432 28.6849V39.0467H65.296V28.6849C65.296 26.2411 63.732 24.8726 61.6303 24.8726C59.5286 24.8726 57.9646 26.2411 57.9646 28.6849V56.4466ZM93.4984 56.3C93.4984 58.4994 95.1114 59.9657 97.2619 59.9657H109.872C112.169 59.9657 113.342 58.255 113.342 56.5932C113.342 54.8826 112.218 53.2208 109.872 53.2208H100.83V45.7916H108.846C111.192 45.7916 112.414 44.0809 112.414 42.4191C112.414 40.7085 111.241 39.0467 108.846 39.0467H100.83V31.9107H109.432C111.729 31.9107 112.902 30.2001 112.902 28.5383C112.902 26.8276 111.778 25.1658 109.432 25.1658H97.3108C94.7203 25.1658 93.4984 26.9742 93.4984 29.418V56.3ZM117.243 56.4466C117.243 58.8904 118.807 60.259 120.909 60.259C123.01 60.259 124.574 58.8904 124.574 56.4466V45.8405H124.672L135.523 58.9882C136.305 59.9168 137.478 60.259 138.357 60.259C140.508 60.259 142.023 58.4017 142.023 56.4955C142.023 55.8112 141.73 55.0781 141.046 54.3449L132.737 45.4495C137.722 44.6674 141.779 41.5882 141.779 36.2118C141.779 28.5383 137.135 25.1658 129.608 25.1658H121.006C118.562 25.1658 117.243 26.6321 117.243 28.9782V56.4466ZM124.574 31.9107H129.608C132.297 31.9107 134.154 33.4259 134.154 36.2118C134.154 38.9489 132.297 40.5618 129.608 40.5618H124.574V31.9107ZM145.522 56.3C145.522 58.4994 147.134 59.9657 149.285 59.9657H161.895C164.192 59.9657 165.365 58.255 165.365 56.5932C165.365 54.8826 164.241 53.2208 161.895 53.2208H152.853V45.7916H160.869C163.215 45.7916 164.437 44.0809 164.437 42.4191C164.437 40.7085 163.264 39.0467 160.869 39.0467H152.853V31.9107H161.455C163.752 31.9107 164.925 30.2001 164.925 28.5383C164.925 26.8276 163.801 25.1658 161.455 25.1658H149.334C146.743 25.1658 145.522 26.9742 145.522 29.418V56.3ZM18.3202 106.447C18.3202 108.89 19.8842 110.259 21.9859 110.259C24.0876 110.259 25.6516 108.89 25.6516 106.447V81.9107H30.9791C33.3252 81.9107 34.3027 80.2001 34.3027 78.5383C34.3027 76.8276 33.0808 75.1658 30.9791 75.1658H12.9927C10.891 75.1658 9.6691 76.8276 9.6691 78.5383C9.6691 80.2001 10.6466 81.9107 12.9927 81.9107H18.3202V106.447ZM52.5034 103.807C46.2962 103.807 43.3147 98.5287 43.3147 92.5658C43.3147 86.6517 46.3939 81.3242 52.5034 81.3242C58.613 81.3242 61.6922 86.6517 61.6922 92.5658C61.6922 98.5287 58.7107 103.807 52.5034 103.807ZM52.5034 110.552C62.5231 110.552 69.3169 102.683 69.3169 92.5658C69.3169 82.6439 62.3276 74.5793 52.5034 74.5793C42.5327 74.5793 35.69 82.3995 35.69 92.5658C35.69 102.683 42.5816 110.552 52.5034 110.552ZM92.2441 106.447C92.7329 108.499 94.3458 110.259 97.0829 110.259C99.4778 110.259 101.335 108.695 101.922 106.691L107.591 87.8248H107.689L113.359 106.691C113.945 108.695 115.802 110.259 118.197 110.259C120.934 110.259 122.547 108.499 123.036 106.447L129.243 79.7602C129.39 79.1248 129.439 78.7827 129.439 78.0984C129.439 76.5343 128.119 74.8726 125.969 74.8726C123.623 74.8726 122.499 76.2411 122.059 78.3916L117.904 99.164H117.806L111.452 77.7563C110.915 75.9967 109.449 74.8726 107.64 74.8726C105.832 74.8726 104.365 75.9967 103.828 77.7563L97.4739 99.164H97.3761L93.2216 78.3916C92.7818 76.2411 91.6576 74.8726 89.3115 74.8726C87.161 74.8726 85.8413 76.5343 85.8413 78.0984C85.8413 78.7827 85.8902 79.1248 86.0368 79.7602L92.2441 106.447ZM128.727 105.225C128.629 105.469 128.385 106.056 128.385 106.838C128.385 108.793 130.047 110.259 132.002 110.259C134.005 110.259 135.032 109.184 135.521 107.669L136.987 103.123H150.575L152.041 107.717C152.53 109.184 153.556 110.259 155.609 110.259C157.417 110.259 158.981 108.939 158.981 107.033C158.981 106.691 158.883 106.007 158.59 105.225L149.01 78.636C148.18 76.29 146.371 74.5793 143.781 74.5793C141.288 74.5793 139.382 76.3877 138.551 78.636L128.727 105.225ZM143.732 82.204H143.83L148.375 96.3781H139.089L143.732 82.204ZM163.771 106.447C163.771 108.89 165.335 110.259 167.437 110.259C169.539 110.259 171.103 108.89 171.103 106.447V81.9107H176.43C178.776 81.9107 179.754 80.2001 179.754 78.5383C179.754 76.8276 178.532 75.1658 176.43 75.1658H158.444C156.342 75.1658 155.12 76.8276 155.12 78.5383C155.12 80.2001 156.098 81.9107 158.444 81.9107H163.771V106.447ZM181.141 92.5658C181.141 102.683 188.033 110.552 197.954 110.552C201.571 110.552 208.952 109.477 208.952 104.785C208.952 103.661 207.925 101.461 205.726 101.461C203.722 101.461 202.06 103.514 197.954 103.514C191.943 103.514 188.766 98.5287 188.766 92.7124C188.766 86.7495 191.894 81.6175 197.954 81.6175C202.06 81.6175 203.429 83.3281 205.432 83.3281C207.241 83.3281 208.463 81.813 208.463 80.0534C208.463 75.7523 201.522 74.5793 197.954 74.5793C187.984 74.5793 181.141 82.3995 181.141 92.5658ZM213.509 106.447C213.509 108.89 215.073 110.259 217.175 110.259C219.276 110.259 220.84 108.89 220.84 106.447V95.7916H236.188V106.447C236.188 108.89 237.752 110.259 239.853 110.259C241.955 110.259 243.519 108.89 243.519 106.447V78.6849C243.519 76.2411 241.955 74.8726 239.853 74.8726C237.752 74.8726 236.188 76.2411 236.188 78.6849V89.0467H220.84V78.6849C220.84 76.2411 219.276 74.8726 217.175 74.8726C215.073 74.8726 213.509 76.2411 213.509 78.6849V106.447Z" fill="white"/>
<path d="M17.0494 56.4466C17.5382 58.4994 19.1511 60.259 21.8882 60.259C24.2831 60.259 26.1404 58.6949 26.7269 56.691L32.3966 37.8248H32.4943L38.164 56.691C38.7505 58.6949 40.6078 60.259 43.0027 60.259C45.7398 60.259 47.3527 58.4994 47.8414 56.4466L54.0487 29.7602C54.1954 29.1248 54.2442 28.7827 54.2442 28.0984C54.2442 26.5343 52.9246 24.8726 50.774 24.8726C48.428 24.8726 47.3038 26.2411 46.8639 28.3916L42.7094 49.164H42.6117L36.2578 27.7563C35.7201 25.9967 34.2539 24.8726 32.4454 24.8726C30.637 24.8726 29.1707 25.9967 28.6331 27.7563L22.2792 49.164H22.1814L18.0269 28.3916C17.5871 26.2411 16.4629 24.8726 14.1168 24.8726C11.9663 24.8726 10.6466 26.5343 10.6466 28.0984C10.6466 28.7827 10.6955 29.1248 10.8421 29.7602L17.0494 56.4466ZM57.9646 56.4466C57.9646 58.8904 59.5286 60.259 61.6303 60.259C63.732 60.259 65.296 58.8904 65.296 56.4466V45.7916H80.6432V56.4466C80.6432 58.8904 82.2072 60.259 84.3089 60.259C86.4106 60.259 87.9746 58.8904 87.9746 56.4466V28.6849C87.9746 26.2411 86.4106 24.8726 84.3089 24.8726C82.2072 24.8726 80.6432 26.2411 80.6432 28.6849V39.0467H65.296V28.6849C65.296 26.2411 63.732 24.8726 61.6303 24.8726C59.5286 24.8726 57.9646 26.2411 57.9646 28.6849V56.4466ZM93.4984 56.3C93.4984 58.4994 95.1114 59.9657 97.2619 59.9657H109.872C112.169 59.9657 113.342 58.255 113.342 56.5932C113.342 54.8826 112.218 53.2208 109.872 53.2208H100.83V45.7916H108.846C111.192 45.7916 112.414 44.0809 112.414 42.4191C112.414 40.7085 111.241 39.0467 108.846 39.0467H100.83V31.9107H109.432C111.729 31.9107 112.902 30.2001 112.902 28.5383C112.902 26.8276 111.778 25.1658 109.432 25.1658H97.3108C94.7203 25.1658 93.4984 26.9742 93.4984 29.418V56.3ZM117.243 56.4466C117.243 58.8904 118.807 60.259 120.909 60.259C123.01 60.259 124.574 58.8904 124.574 56.4466V45.8405H124.672L135.523 58.9882C136.305 59.9168 137.478 60.259 138.357 60.259C140.508 60.259 142.023 58.4017 142.023 56.4955C142.023 55.8112 141.73 55.0781 141.046 54.3449L132.737 45.4495C137.722 44.6674 141.779 41.5882 141.779 36.2118C141.779 28.5383 137.135 25.1658 129.608 25.1658H121.006C118.562 25.1658 117.243 26.6321 117.243 28.9782V56.4466ZM124.574 31.9107H129.608C132.297 31.9107 134.154 33.4259 134.154 36.2118C134.154 38.9489 132.297 40.5618 129.608 40.5618H124.574V31.9107ZM145.522 56.3C145.522 58.4994 147.134 59.9657 149.285 59.9657H161.895C164.192 59.9657 165.365 58.255 165.365 56.5932C165.365 54.8826 164.241 53.2208 161.895 53.2208H152.853V45.7916H160.869C163.215 45.7916 164.437 44.0809 164.437 42.4191C164.437 40.7085 163.264 39.0467 160.869 39.0467H152.853V31.9107H161.455C163.752 31.9107 164.925 30.2001 164.925 28.5383C164.925 26.8276 163.801 25.1658 161.455 25.1658H149.334C146.743 25.1658 145.522 26.9742 145.522 29.418V56.3ZM18.3202 106.447C18.3202 108.89 19.8842 110.259 21.9859 110.259C24.0876 110.259 25.6516 108.89 25.6516 106.447V81.9107H30.9791C33.3252 81.9107 34.3027 80.2001 34.3027 78.5383C34.3027 76.8276 33.0808 75.1658 30.9791 75.1658H12.9927C10.891 75.1658 9.6691 76.8276 9.6691 78.5383C9.6691 80.2001 10.6466 81.9107 12.9927 81.9107H18.3202V106.447ZM52.5034 103.807C46.2962 103.807 43.3147 98.5287 43.3147 92.5658C43.3147 86.6517 46.3939 81.3242 52.5034 81.3242C58.613 81.3242 61.6922 86.6517 61.6922 92.5658C61.6922 98.5287 58.7107 103.807 52.5034 103.807ZM52.5034 110.552C62.5231 110.552 69.3169 102.683 69.3169 92.5658C69.3169 82.6439 62.3276 74.5793 52.5034 74.5793C42.5327 74.5793 35.69 82.3995 35.69 92.5658C35.69 102.683 42.5816 110.552 52.5034 110.552ZM92.2441 106.447C92.7329 108.499 94.3458 110.259 97.0829 110.259C99.4778 110.259 101.335 108.695 101.922 106.691L107.591 87.8248H107.689L113.359 106.691C113.945 108.695 115.802 110.259 118.197 110.259C120.934 110.259 122.547 108.499 123.036 106.447L129.243 79.7602C129.39 79.1248 129.439 78.7827 129.439 78.0984C129.439 76.5343 128.119 74.8726 125.969 74.8726C123.623 74.8726 122.499 76.2411 122.059 78.3916L117.904 99.164H117.806L111.452 77.7563C110.915 75.9967 109.449 74.8726 107.64 74.8726C105.832 74.8726 104.365 75.9967 103.828 77.7563L97.4739 99.164H97.3761L93.2216 78.3916C92.7818 76.2411 91.6576 74.8726 89.3115 74.8726C87.161 74.8726 85.8413 76.5343 85.8413 78.0984C85.8413 78.7827 85.8902 79.1248 86.0368 79.7602L92.2441 106.447ZM128.727 105.225C128.629 105.469 128.385 106.056 128.385 106.838C128.385 108.793 130.047 110.259 132.002 110.259C134.005 110.259 135.032 109.184 135.521 107.669L136.987 103.123H150.575L152.041 107.717C152.53 109.184 153.556 110.259 155.609 110.259C157.417 110.259 158.981 108.939 158.981 107.033C158.981 106.691 158.883 106.007 158.59 105.225L149.01 78.636C148.18 76.29 146.371 74.5793 143.781 74.5793C141.288 74.5793 139.382 76.3877 138.551 78.636L128.727 105.225ZM143.732 82.204H143.83L148.375 96.3781H139.089L143.732 82.204ZM163.771 106.447C163.771 108.89 165.335 110.259 167.437 110.259C169.539 110.259 171.103 108.89 171.103 106.447V81.9107H176.43C178.776 81.9107 179.754 80.2001 179.754 78.5383C179.754 76.8276 178.532 75.1658 176.43 75.1658H158.444C156.342 75.1658 155.12 76.8276 155.12 78.5383C155.12 80.2001 156.098 81.9107 158.444 81.9107H163.771V106.447ZM181.141 92.5658C181.141 102.683 188.033 110.552 197.954 110.552C201.571 110.552 208.952 109.477 208.952 104.785C208.952 103.661 207.925 101.461 205.726 101.461C203.722 101.461 202.06 103.514 197.954 103.514C191.943 103.514 188.766 98.5287 188.766 92.7124C188.766 86.7495 191.894 81.6175 197.954 81.6175C202.06 81.6175 203.429 83.3281 205.432 83.3281C207.241 83.3281 208.463 81.813 208.463 80.0534C208.463 75.7523 201.522 74.5793 197.954 74.5793C187.984 74.5793 181.141 82.3995 181.141 92.5658ZM213.509 106.447C213.509 108.89 215.073 110.259 217.175 110.259C219.276 110.259 220.84 108.89 220.84 106.447V95.7916H236.188V106.447C236.188 108.89 237.752 110.259 239.853 110.259C241.955 110.259 243.519 108.89 243.519 106.447V78.6849C243.519 76.2411 241.955 74.8726 239.853 74.8726C237.752 74.8726 236.188 76.2411 236.188 78.6849V89.0467H220.84V78.6849C220.84 76.2411 219.276 74.8726 217.175 74.8726C215.073 74.8726 213.509 76.2411 213.509 78.6849V106.447Z" fill="#FFD3D9"/>
<path d="M17.0494 56.4466L15.754 56.7479L15.7556 56.7547L17.0494 56.4466ZM26.7269 56.691L25.4531 56.3082L25.4505 56.3174L26.7269 56.691ZM32.3966 37.8248V36.4948H31.4075L31.1228 37.442L32.3966 37.8248ZM32.4943 37.8248L33.768 37.442L33.4834 36.4948H32.4943V37.8248ZM38.164 56.691L39.4404 56.3174L39.4377 56.3082L38.164 56.691ZM47.8414 56.4466L49.1353 56.7547L49.1369 56.7479L47.8414 56.4466ZM54.0487 29.7602L55.3441 30.0615L55.3447 30.0592L54.0487 29.7602ZM46.8639 28.3916L45.5609 28.1251L45.5597 28.1308L46.8639 28.3916ZM42.7094 49.164V50.494H43.7998L44.0136 49.4249L42.7094 49.164ZM42.6117 49.164L41.3367 49.5425L41.6191 50.494H42.6117V49.164ZM36.2578 27.7563L37.5328 27.3778L37.5297 27.3676L36.2578 27.7563ZM28.6331 27.7563L27.3611 27.3676L27.3581 27.3778L28.6331 27.7563ZM22.2792 49.164V50.494H23.2718L23.5542 49.5425L22.2792 49.164ZM22.1814 49.164L20.8772 49.4249L21.0911 50.494H22.1814V49.164ZM18.0269 28.3916L19.3311 28.1308L19.33 28.1251L18.0269 28.3916ZM10.8421 29.7602L9.54619 30.0592L9.54671 30.0615L10.8421 29.7602ZM15.7556 56.7547C16.3634 59.3076 18.439 61.589 21.8882 61.589V58.929C19.8632 58.929 18.7129 57.6912 18.3432 56.1386L15.7556 56.7547ZM21.8882 61.589C24.8977 61.589 27.2578 59.612 28.0034 57.0646L25.4505 56.3174C25.023 57.7778 23.6685 58.929 21.8882 58.929V61.589ZM28.0006 57.0738L33.6703 38.2075L31.1228 37.442L25.4532 56.3082L28.0006 57.0738ZM32.3966 39.1548H32.4943V36.4948H32.3966V39.1548ZM31.2206 38.2075L36.8902 57.0738L39.4377 56.3082L33.768 37.442L31.2206 38.2075ZM36.8875 57.0646C37.6331 59.612 39.9931 61.589 43.0027 61.589V58.929C41.2224 58.929 39.8678 57.7778 39.4404 56.3174L36.8875 57.0646ZM43.0027 61.589C46.4519 61.589 48.5274 59.3076 49.1353 56.7547L46.5476 56.1386C46.1779 57.6912 45.0276 58.929 43.0027 58.929V61.589ZM49.1369 56.7479L55.3441 30.0615L52.7533 29.4589L46.546 56.1453L49.1369 56.7479ZM55.3447 30.0592C55.5106 29.3401 55.5742 28.897 55.5742 28.0984H52.9142C52.9142 28.6683 52.8801 28.9095 52.7528 29.4611L55.3447 30.0592ZM55.5742 28.0984C55.5742 25.8253 53.6843 23.5426 50.774 23.5426V26.2026C52.1648 26.2026 52.9142 27.2434 52.9142 28.0984H55.5742ZM50.774 23.5426C49.3235 23.5426 48.1003 23.9757 47.1777 24.8714C46.2858 25.7373 45.8105 26.9051 45.5609 28.1251L48.1669 28.6582C48.3573 27.7277 48.6639 27.1359 49.0306 26.7799C49.3666 26.4537 49.8785 26.2026 50.774 26.2026V23.5426ZM45.5597 28.1308L41.4053 48.9032L44.0136 49.4249L48.1681 28.6525L45.5597 28.1308ZM42.7094 47.834H42.6117V50.494H42.7094V47.834ZM43.8867 48.7856L37.5328 27.3778L34.9827 28.1347L41.3367 49.5425L43.8867 48.7856ZM37.5297 27.3676C36.8292 25.0749 34.8655 23.5426 32.4454 23.5426V26.2026C33.6422 26.2026 34.6111 26.9186 34.9858 28.1449L37.5297 27.3676ZM32.4454 23.5426C30.0253 23.5426 28.0617 25.0749 27.3611 27.3676L29.905 28.1449C30.2797 26.9186 31.2487 26.2026 32.4454 26.2026V23.5426ZM27.3581 27.3778L21.0041 48.7856L23.5542 49.5425L29.9081 28.1347L27.3581 27.3778ZM22.2792 47.834H22.1814V50.494H22.2792V47.834ZM23.4856 48.9032L19.3311 28.1308L16.7228 28.6525L20.8772 49.4249L23.4856 48.9032ZM19.33 28.1251C19.0804 26.9051 18.605 25.7373 17.7132 24.8714C16.7906 23.9757 15.5674 23.5426 14.1168 23.5426V26.2026C15.0124 26.2026 15.5243 26.4537 15.8603 26.7799C16.2269 27.1359 16.5336 27.7277 16.7239 28.6582L19.33 28.1251ZM14.1168 23.5426C11.2065 23.5426 9.31663 25.8253 9.31663 28.0984H11.9766C11.9766 27.2434 12.726 26.2026 14.1168 26.2026V23.5426ZM9.31663 28.0984C9.31663 28.897 9.38023 29.3401 9.54619 30.0592L12.1381 29.4611C12.0108 28.9095 11.9766 28.6683 11.9766 28.0984H9.31663ZM9.54671 30.0615L15.754 56.7479L18.3448 56.1453L12.1375 29.4589L9.54671 30.0615ZM65.296 45.7916V44.4616H63.966V45.7916H65.296ZM80.6432 45.7916H81.9732V44.4616H80.6432V45.7916ZM80.6432 39.0467V40.3767H81.9732V39.0467H80.6432ZM65.296 39.0467H63.966V40.3767H65.296V39.0467ZM56.6346 56.4466C56.6346 57.9603 57.1259 59.2755 58.0733 60.2141C59.0158 61.1477 60.289 61.589 61.6303 61.589V58.929C60.8699 58.929 60.3103 58.6859 59.9454 58.3244C59.5853 57.9677 59.2946 57.3768 59.2946 56.4466H56.6346ZM61.6303 61.589C62.9716 61.589 64.2449 61.1477 65.1873 60.2141C66.1348 59.2755 66.626 57.9603 66.626 56.4466H63.966C63.966 57.3768 63.6753 57.9677 63.3153 58.3244C62.9503 58.6859 62.3907 58.929 61.6303 58.929V61.589ZM66.626 56.4466V45.7916H63.966V56.4466H66.626ZM65.296 47.1216H80.6432V44.4616H65.296V47.1216ZM79.3132 45.7916V56.4466H81.9732V45.7916H79.3132ZM79.3132 56.4466C79.3132 57.9603 79.8044 59.2755 80.7519 60.2141C81.6943 61.1477 82.9676 61.589 84.3089 61.589V58.929C83.5485 58.929 82.9889 58.6859 82.6239 58.3244C82.2639 57.9677 81.9732 57.3768 81.9732 56.4466H79.3132ZM84.3089 61.589C85.6502 61.589 86.9234 61.1477 87.8659 60.2141C88.8133 59.2755 89.3046 57.9603 89.3046 56.4466H86.6446C86.6446 57.3768 86.3539 57.9677 85.9939 58.3244C85.6289 58.6859 85.0693 58.929 84.3089 58.929V61.589ZM89.3046 56.4466V28.6849H86.6446V56.4466H89.3046ZM89.3046 28.6849C89.3046 27.1712 88.8133 25.856 87.8659 24.9174C86.9234 23.9838 85.6502 23.5426 84.3089 23.5426V26.2026C85.0693 26.2026 85.6289 26.4456 85.9939 26.8072C86.3539 27.1638 86.6446 27.7547 86.6446 28.6849H89.3046ZM84.3089 23.5426C82.9676 23.5426 81.6943 23.9838 80.7519 24.9174C79.8044 25.856 79.3132 27.1712 79.3132 28.6849H81.9732C81.9732 27.7547 82.2639 27.1638 82.6239 26.8072C82.9889 26.4456 83.5485 26.2026 84.3089 26.2026V23.5426ZM79.3132 28.6849V39.0467H81.9732V28.6849H79.3132ZM80.6432 37.7167H65.296V40.3767H80.6432V37.7167ZM66.626 39.0467V28.6849H63.966V39.0467H66.626ZM66.626 28.6849C66.626 27.1712 66.1348 25.856 65.1873 24.9174C64.2449 23.9838 62.9716 23.5426 61.6303 23.5426V26.2026C62.3907 26.2026 62.9503 26.4456 63.3153 26.8072C63.6753 27.1638 63.966 27.7547 63.966 28.6849H66.626ZM61.6303 23.5426C60.289 23.5426 59.0158 23.9838 58.0733 24.9174C57.1259 25.856 56.6346 27.1712 56.6346 28.6849H59.2946C59.2946 27.7547 59.5853 27.1638 59.9454 26.8072C60.3103 26.4456 60.8699 26.2026 61.6303 26.2026V23.5426ZM56.6346 28.6849V56.4466H59.2946V28.6849H56.6346ZM100.83 53.2208H99.4999V54.5508H100.83V53.2208ZM100.83 45.7916V44.4616H99.4999V45.7916H100.83ZM100.83 39.0467H99.4999V40.3767H100.83V39.0467ZM100.83 31.9107V30.5807H99.4999V31.9107H100.83ZM92.1684 56.3C92.1684 57.7395 92.7038 59.0114 93.6554 59.9197C94.6005 60.8218 95.8817 61.2957 97.2619 61.2957V58.6357C96.4915 58.6357 95.8911 58.3764 95.492 57.9956C95.0995 57.6209 94.8284 57.0599 94.8284 56.3H92.1684ZM97.2619 61.2957H109.872V58.6357H97.2619V61.2957ZM109.872 61.2957C111.377 61.2957 112.607 60.7235 113.451 59.7996C114.274 58.8977 114.672 57.7258 114.672 56.5932H112.012C112.012 57.1224 111.823 57.6368 111.487 58.0056C111.17 58.3525 110.664 58.6357 109.872 58.6357V61.2957ZM114.672 56.5932C114.672 55.4568 114.299 54.2782 113.469 53.369C112.619 52.4376 111.382 51.8908 109.872 51.8908V54.5508C110.708 54.5508 111.206 54.8348 111.504 55.1621C111.823 55.5113 112.012 56.0191 112.012 56.5932H114.672ZM109.872 51.8908H100.83V54.5508H109.872V51.8908ZM102.16 53.2208V45.7916H99.4999V53.2208H102.16ZM100.83 47.1216H108.846V44.4616H100.83V47.1216ZM108.846 47.1216C112 47.1216 113.744 44.7399 113.744 42.4191H111.084C111.084 43.4219 110.384 44.4616 108.846 44.4616V47.1216ZM113.744 42.4191C113.744 41.2673 113.348 40.0849 112.496 39.1796C111.626 38.2562 110.37 37.7167 108.846 37.7167V40.3767C109.716 40.3767 110.244 40.6681 110.559 41.0032C110.892 41.3565 111.084 41.8602 111.084 42.4191H113.744ZM108.846 37.7167H100.83V40.3767H108.846V37.7167ZM102.16 39.0467V31.9107H99.4999V39.0467H102.16ZM100.83 33.2407H109.432V30.5807H100.83V33.2407ZM109.432 33.2407C110.937 33.2407 112.167 32.6686 113.011 31.7447C113.835 30.8427 114.232 29.6709 114.232 28.5383H111.572C111.572 29.0675 111.384 29.5818 111.047 29.9507C110.73 30.2976 110.225 30.5807 109.432 30.5807V33.2407ZM114.232 28.5383C114.232 27.4018 113.859 26.2233 113.029 25.314C112.179 24.3827 110.942 23.8358 109.432 23.8358V26.4958C110.268 26.4958 110.766 26.7799 111.065 27.1071C111.383 27.4564 111.572 27.9641 111.572 28.5383H114.232ZM109.432 23.8358H97.3108V26.4958H109.432V23.8358ZM97.3108 23.8358C95.6797 23.8358 94.3278 24.4208 93.4101 25.5257C92.5231 26.5935 92.1684 27.9934 92.1684 29.418H94.8284C94.8284 28.3989 95.0847 27.6727 95.4563 27.2253C95.7971 26.815 96.3514 26.4958 97.3108 26.4958V23.8358ZM92.1684 29.418V56.3H94.8284V29.418H92.1684ZM124.574 45.8405V44.5105H123.244V45.8405H124.574ZM124.672 45.8405L125.698 44.9939L125.299 44.5105H124.672V45.8405ZM135.523 58.9882L134.497 59.8348L134.505 59.8449L135.523 58.9882ZM141.046 54.3449L142.018 53.4374L142.017 53.4371L141.046 54.3449ZM132.737 45.4495L132.53 44.1355L130.052 44.5242L131.765 46.3573L132.737 45.4495ZM124.574 31.9107V30.5807H123.244V31.9107H124.574ZM124.574 40.5618H123.244V41.8918H124.574V40.5618ZM115.913 56.4466C115.913 57.9603 116.404 59.2755 117.351 60.2141C118.294 61.1477 119.567 61.589 120.909 61.589V58.929C120.148 58.929 119.589 58.6859 119.224 58.3244C118.864 57.9677 118.573 57.3768 118.573 56.4466H115.913ZM120.909 61.589C122.25 61.589 123.523 61.1477 124.466 60.2141C125.413 59.2755 125.904 57.9603 125.904 56.4466H123.244C123.244 57.3768 122.953 57.9677 122.593 58.3244C122.229 58.6859 121.669 58.929 120.909 58.929V61.589ZM125.904 56.4466V45.8405H123.244V56.4466H125.904ZM124.574 47.1705H124.672V44.5105H124.574V47.1705ZM123.646 46.687L134.497 59.8347L136.548 58.1416L125.698 44.9939L123.646 46.687ZM134.505 59.8449C135.603 61.1481 137.194 61.589 138.357 61.589V58.929C137.761 58.929 137.006 58.6855 136.54 58.1315L134.505 59.8449ZM138.357 61.589C141.342 61.589 143.353 59.0321 143.353 56.4955H140.693C140.693 57.7712 139.673 58.929 138.357 58.929V61.589ZM143.353 56.4955C143.353 55.4026 142.878 54.3589 142.018 53.4374L140.073 55.2524C140.582 55.7972 140.693 56.2198 140.693 56.4955H143.353ZM142.017 53.4371L133.709 44.5416L131.765 46.3573L140.074 55.2528L142.017 53.4371ZM132.943 46.7634C135.631 46.3416 138.161 45.2877 140.038 43.5225C141.941 41.7328 143.109 39.2689 143.109 36.2118H140.449C140.449 38.5312 139.587 40.2951 138.216 41.5846C136.819 42.8986 134.827 43.7752 132.53 44.1355L132.943 46.7634ZM143.109 36.2118C143.109 32.0977 141.853 28.9208 139.382 26.8016C136.948 24.7142 133.544 23.8358 129.608 23.8358V26.4958C133.2 26.4958 135.881 27.3036 137.65 28.8208C139.383 30.3063 140.449 32.6524 140.449 36.2118H143.109ZM129.608 23.8358H121.006V26.4958H129.608V23.8358ZM121.006 23.8358C119.515 23.8358 118.194 24.2897 117.25 25.2697C116.314 26.2417 115.913 27.5621 115.913 28.9782H118.573C118.573 28.0481 118.831 27.4624 119.166 27.1148C119.493 26.7751 120.053 26.4958 121.006 26.4958V23.8358ZM115.913 28.9782V56.4466H118.573V28.9782H115.913ZM124.574 33.2407H129.608V30.5807H124.574V33.2407ZM129.608 33.2407C130.711 33.2407 131.498 33.5499 131.995 34.001C132.474 34.4358 132.824 35.1295 132.824 36.2118H135.484C135.484 34.5082 134.906 33.0514 133.784 32.0321C132.679 31.0292 131.194 30.5807 129.608 30.5807V33.2407ZM132.824 36.2118C132.824 37.2656 132.476 37.981 131.983 38.4399C131.478 38.9102 130.69 39.2318 129.608 39.2318V41.8918C131.215 41.8918 132.7 41.407 133.796 40.3865C134.904 39.3548 135.484 37.8951 135.484 36.2118H132.824ZM129.608 39.2318H124.574V41.8918H129.608V39.2318ZM125.904 40.5618V31.9107H123.244V40.5618H125.904ZM152.853 53.2208H151.523V54.5508H152.853V53.2208ZM152.853 45.7916V44.4616H151.523V45.7916H152.853ZM152.853 39.0467H151.523V40.3767H152.853V39.0467ZM152.853 31.9107V30.5807H151.523V31.9107H152.853ZM144.192 56.3C144.192 57.7395 144.727 59.0114 145.679 59.9197C146.624 60.8218 147.905 61.2957 149.285 61.2957V58.6357C148.515 58.6357 147.914 58.3764 147.515 57.9956C147.123 57.6209 146.852 57.0599 146.852 56.3H144.192ZM149.285 61.2957H161.895V58.6357H149.285V61.2957ZM161.895 61.2957C163.4 61.2957 164.63 60.7235 165.474 59.7996C166.298 58.8977 166.695 57.7258 166.695 56.5932H164.035C164.035 57.1224 163.847 57.6368 163.51 58.0056C163.193 58.3525 162.688 58.6357 161.895 58.6357V61.2957ZM166.695 56.5932C166.695 55.4568 166.322 54.2782 165.492 53.369C164.642 52.4376 163.405 51.8908 161.895 51.8908V54.5508C162.731 54.5508 163.229 54.8348 163.528 55.1621C163.846 55.5113 164.035 56.0191 164.035 56.5932H166.695ZM161.895 51.8908H152.853V54.5508H161.895V51.8908ZM154.183 53.2208V45.7916H151.523V53.2208H154.183ZM152.853 47.1216H160.869V44.4616H152.853V47.1216ZM160.869 47.1216C164.023 47.1216 165.767 44.7399 165.767 42.4191H163.107C163.107 43.4219 162.407 44.4616 160.869 44.4616V47.1216ZM165.767 42.4191C165.767 41.2673 165.372 40.0849 164.519 39.1796C163.649 38.2562 162.394 37.7167 160.869 37.7167V40.3767C161.739 40.3767 162.267 40.6681 162.583 41.0032C162.915 41.3565 163.107 41.8602 163.107 42.4191H165.767ZM160.869 37.7167H152.853V40.3767H160.869V37.7167ZM154.183 39.0467V31.9107H151.523V39.0467H154.183ZM152.853 33.2407H161.455V30.5807H152.853V33.2407ZM161.455 33.2407C162.96 33.2407 164.19 32.6686 165.034 31.7447C165.858 30.8427 166.255 29.6709 166.255 28.5383H163.595C163.595 29.0675 163.407 29.5818 163.07 29.9507C162.753 30.2976 162.248 30.5807 161.455 30.5807V33.2407ZM166.255 28.5383C166.255 27.4018 165.882 26.2233 165.052 25.314C164.203 24.3827 162.965 23.8358 161.455 23.8358V26.4958C162.291 26.4958 162.789 26.7799 163.088 27.1071C163.406 27.4564 163.595 27.9641 163.595 28.5383H166.255ZM161.455 23.8358H149.334V26.4958H161.455V23.8358ZM149.334 23.8358C147.703 23.8358 146.351 24.4208 145.433 25.5257C144.546 26.5935 144.192 27.9934 144.192 29.418H146.852C146.852 28.3989 147.108 27.6727 147.479 27.2253C147.82 26.815 148.375 26.4958 149.334 26.4958V23.8358ZM144.192 29.418V56.3H146.852V29.418H144.192ZM25.6516 81.9107V80.5807H24.3216V81.9107H25.6516ZM18.3202 81.9107H19.6502V80.5807H18.3202V81.9107ZM16.9902 106.447C16.9902 107.96 17.4815 109.275 18.4289 110.214C19.3714 111.148 20.6446 111.589 21.9859 111.589V108.929C21.2255 108.929 20.6659 108.686 20.301 108.324C19.9409 107.968 19.6502 107.377 19.6502 106.447H16.9902ZM21.9859 111.589C23.3272 111.589 24.6005 111.148 25.5429 110.214C26.4904 109.275 26.9816 107.96 26.9816 106.447H24.3216C24.3216 107.377 24.0309 107.968 23.6709 108.324C23.3059 108.686 22.7463 108.929 21.9859 108.929V111.589ZM26.9816 106.447V81.9107H24.3216V106.447H26.9816ZM25.6516 83.2407H30.9791V80.5807H25.6516V83.2407ZM30.9791 83.2407C32.5074 83.2407 33.7233 82.6673 34.536 81.7068C35.319 80.7814 35.6327 79.6117 35.6327 78.5383H32.9727C32.9727 79.1267 32.7977 79.6431 32.5054 79.9886C32.2428 80.2989 31.7969 80.5807 30.9791 80.5807V83.2407ZM35.6327 78.5383C35.6327 76.2241 33.9399 73.8358 30.9791 73.8358V76.4958C32.2218 76.4958 32.9727 77.4311 32.9727 78.5383H35.6327ZM30.9791 73.8358H12.9927V76.4958H30.9791V73.8358ZM12.9927 73.8358C10.0319 73.8358 8.3391 76.2241 8.3391 78.5383H10.9991C10.9991 77.4311 11.7501 76.4958 12.9927 76.4958V73.8358ZM8.3391 78.5383C8.3391 79.6117 8.65283 80.7814 9.43582 81.7068C10.2485 82.6673 11.4644 83.2407 12.9927 83.2407V80.5807C12.1749 80.5807 11.729 80.2989 11.4664 79.9886C11.1741 79.6431 10.9991 79.1267 10.9991 78.5383H8.3391ZM12.9927 83.2407H18.3202V80.5807H12.9927V83.2407ZM16.9902 81.9107V106.447H19.6502V81.9107H16.9902ZM52.5034 102.477C49.8302 102.477 47.9274 101.365 46.6522 99.6338C45.343 97.8567 44.6447 95.3473 44.6447 92.5658H41.9847C41.9847 95.7471 42.7771 98.8585 44.5105 101.211C46.2779 103.611 48.9694 105.137 52.5034 105.137V102.477ZM44.6447 92.5658C44.6447 89.8193 45.3625 87.3074 46.6869 85.5187C47.9807 83.7712 49.8886 82.6542 52.5034 82.6542V79.9942C49.0088 79.9942 46.3223 81.541 44.5491 83.9358C42.8065 86.2893 41.9847 89.3982 41.9847 92.5658H44.6447ZM52.5034 82.6542C55.1183 82.6542 57.0262 83.7712 58.32 85.5187C59.6444 87.3074 60.3622 89.8193 60.3622 92.5658H63.0222C63.0222 89.3982 62.2004 86.2893 60.4578 83.9358C58.6846 81.541 55.9981 79.9942 52.5034 79.9942V82.6542ZM60.3622 92.5658C60.3622 95.3473 59.6639 97.8567 58.3547 99.6338C57.0795 101.365 55.1767 102.477 52.5034 102.477V105.137C56.0374 105.137 58.729 103.611 60.4963 101.211C62.2298 98.8585 63.0222 95.7471 63.0222 92.5658H60.3622ZM52.5034 111.882C63.3689 111.882 70.6469 103.301 70.6469 92.5658H67.9869C67.9869 102.065 61.6772 109.222 52.5034 109.222V111.882ZM70.6469 92.5658C70.6469 82.0249 63.1725 73.2493 52.5034 73.2493V75.9093C61.4826 75.9093 67.9869 83.2629 67.9869 92.5658H70.6469ZM52.5034 73.2493C41.6916 73.2493 34.36 81.7763 34.36 92.5658H37.02C37.02 83.0227 43.3738 75.9093 52.5034 75.9093V73.2493ZM34.36 92.5658C34.36 103.307 41.7407 111.882 52.5034 111.882V109.222C43.4225 109.222 37.02 102.06 37.02 92.5658H34.36ZM92.2441 106.447L90.9487 106.748L90.9503 106.755L92.2441 106.447ZM101.922 106.691L100.648 106.308L100.645 106.317L101.922 106.691ZM107.591 87.8248V86.4948H106.602L106.318 87.442L107.591 87.8248ZM107.689 87.8248L108.963 87.442L108.678 86.4948H107.689V87.8248ZM113.359 106.691L114.635 106.317L114.632 106.308L113.359 106.691ZM123.036 106.447L124.33 106.755L124.332 106.748L123.036 106.447ZM129.243 79.7602L130.539 80.0615L130.539 80.0592L129.243 79.7602ZM122.059 78.3916L120.756 78.1251L120.754 78.1308L122.059 78.3916ZM117.904 99.164V100.494H118.994L119.208 99.4249L117.904 99.164ZM117.806 99.164L116.531 99.5425L116.814 100.494H117.806V99.164ZM111.452 77.7563L112.728 77.3778L112.724 77.3676L111.452 77.7563ZM103.828 77.7563L102.556 77.3676L102.553 77.3778L103.828 77.7563ZM97.4739 99.164V100.494H98.4665L98.7489 99.5425L97.4739 99.164ZM97.3761 99.164L96.072 99.4249L96.2858 100.494H97.3761V99.164ZM93.2216 78.3916L94.5258 78.1308L94.5247 78.1251L93.2216 78.3916ZM86.0368 79.7602L84.7409 80.0592L84.7414 80.0615L86.0368 79.7602ZM90.9503 106.755C91.5581 109.308 93.6337 111.589 97.0829 111.589V108.929C95.0579 108.929 93.9076 107.691 93.538 106.139L90.9503 106.755ZM97.0829 111.589C100.092 111.589 102.452 109.612 103.198 107.065L100.645 106.317C100.218 107.778 98.8632 108.929 97.0829 108.929V111.589ZM103.195 107.074L108.865 88.2075L106.318 87.442L100.648 106.308L103.195 107.074ZM107.591 89.1548H107.689V86.4948H107.591V89.1548ZM106.415 88.2075L112.085 107.074L114.632 106.308L108.963 87.442L106.415 88.2075ZM112.082 107.065C112.828 109.612 115.188 111.589 118.197 111.589V108.929C116.417 108.929 115.063 107.778 114.635 106.317L112.082 107.065ZM118.197 111.589C121.647 111.589 123.722 109.308 124.33 106.755L121.742 106.139C121.373 107.691 120.222 108.929 118.197 108.929V111.589ZM124.332 106.748L130.539 80.0615L127.948 79.4589L121.741 106.145L124.332 106.748ZM130.539 80.0592C130.705 79.3401 130.769 78.897 130.769 78.0984H128.109C128.109 78.6683 128.075 78.9095 127.947 79.4611L130.539 80.0592ZM130.769 78.0984C130.769 75.8253 128.879 73.5426 125.969 73.5426V76.2026C127.36 76.2026 128.109 77.2434 128.109 78.0984H130.769ZM125.969 73.5426C124.518 73.5426 123.295 73.9757 122.372 74.8714C121.481 75.7373 121.005 76.9051 120.756 78.1251L123.362 78.6582C123.552 77.7277 123.859 77.1359 124.225 76.7799C124.561 76.4537 125.073 76.2026 125.969 76.2026V73.5426ZM120.754 78.1308L116.6 98.9032L119.208 99.4249L123.363 78.6525L120.754 78.1308ZM117.904 97.834H117.806V100.494H117.904V97.834ZM119.081 98.7856L112.728 77.3778L110.177 78.1347L116.531 99.5425L119.081 98.7856ZM112.724 77.3676C112.024 75.0749 110.06 73.5426 107.64 73.5426V76.2026C108.837 76.2026 109.806 76.9186 110.181 78.1449L112.724 77.3676ZM107.64 73.5426C105.22 73.5426 103.256 75.0749 102.556 77.3676L105.1 78.1449C105.474 76.9186 106.443 76.2026 107.64 76.2026V73.5426ZM102.553 77.3778L96.1989 98.7856L98.7489 99.5425L105.103 78.1347L102.553 77.3778ZM97.4739 97.834H97.3761V100.494H97.4739V97.834ZM98.6803 98.9032L94.5258 78.1308L91.9175 78.6525L96.072 99.4249L98.6803 98.9032ZM94.5247 78.1251C94.2751 76.9051 93.7997 75.7373 92.9079 74.8714C91.9853 73.9757 90.7621 73.5426 89.3115 73.5426V76.2026C90.2071 76.2026 90.719 76.4537 91.055 76.7799C91.4217 77.1359 91.7283 77.7277 91.9186 78.6582L94.5247 78.1251ZM89.3115 73.5426C86.4013 73.5426 84.5113 75.8253 84.5113 78.0984H87.1713C87.1713 77.2434 87.9207 76.2026 89.3115 76.2026V73.5426ZM84.5113 78.0984C84.5113 78.897 84.5749 79.3401 84.7409 80.0592L87.3328 79.4611C87.2055 78.9095 87.1713 78.6683 87.1713 78.0984H84.5113ZM84.7414 80.0615L90.9487 106.748L93.5395 106.145L87.3323 79.4589L84.7414 80.0615ZM128.727 105.225L129.962 105.719L129.968 105.702L129.974 105.686L128.727 105.225ZM135.521 107.669L134.255 107.26L134.255 107.26L135.521 107.669ZM136.987 103.123V101.793H136.018L135.721 102.715L136.987 103.123ZM150.575 103.123L151.842 102.719L151.546 101.793H150.575V103.123ZM152.041 107.717L150.774 108.122L150.776 108.13L150.779 108.138L152.041 107.717ZM158.59 105.225L157.339 105.676L157.342 105.684L157.345 105.692L158.59 105.225ZM149.01 78.636L147.757 79.0801L147.759 79.0868L149.01 78.636ZM138.551 78.636L137.303 78.175L137.303 78.1751L138.551 78.636ZM143.732 82.204V80.874H142.768L142.468 81.79L143.732 82.204ZM143.83 82.204L145.096 81.7978L144.8 80.874H143.83V82.204ZM148.375 96.3781V97.7081H150.198L149.642 95.972L148.375 96.3781ZM139.089 96.3781L137.825 95.9641L137.253 97.7081H139.089V96.3781ZM127.492 104.731C127.387 104.993 127.055 105.783 127.055 106.838H129.715C129.715 106.329 129.871 105.945 129.962 105.719L127.492 104.731ZM127.055 106.838C127.055 109.622 129.41 111.589 132.002 111.589V108.929C130.683 108.929 129.715 107.964 129.715 106.838H127.055ZM132.002 111.589C133.254 111.589 134.321 111.247 135.164 110.567C135.992 109.9 136.489 108.999 136.786 108.077L134.255 107.26C134.064 107.853 133.803 108.248 133.494 108.497C133.201 108.733 132.753 108.929 132.002 108.929V111.589ZM136.786 108.077L138.253 103.531L135.721 102.715L134.255 107.26L136.786 108.077ZM136.987 104.453H150.575V101.793H136.987V104.453ZM149.307 103.527L150.774 108.122L153.308 107.313L151.842 102.719L149.307 103.527ZM150.779 108.138C151.079 109.038 151.58 109.925 152.416 110.583C153.264 111.251 154.339 111.589 155.609 111.589V108.929C154.826 108.929 154.361 108.729 154.061 108.493C153.748 108.247 153.491 107.863 153.303 107.297L150.779 108.138ZM155.609 111.589C158.046 111.589 160.311 109.775 160.311 107.033H157.651C157.651 108.104 156.788 108.929 155.609 108.929V111.589ZM160.311 107.033C160.311 106.507 160.175 105.664 159.836 104.758L157.345 105.692C157.592 106.349 157.651 106.875 157.651 107.033H160.311ZM159.841 104.774L150.262 78.1852L147.759 79.0868L157.339 105.676L159.841 104.774ZM150.264 78.192C149.299 75.468 147.081 73.2493 143.781 73.2493V75.9093C145.661 75.9093 147.06 77.1119 147.757 79.08L150.264 78.192ZM143.781 73.2493C140.569 73.2493 138.264 75.5748 137.303 78.175L139.799 79.0971C140.499 77.2006 142.007 75.9093 143.781 75.9093V73.2493ZM137.303 78.1751L127.479 104.764L129.974 105.686L139.799 79.097L137.303 78.1751ZM143.732 83.534H143.83V80.874H143.732V83.534ZM142.563 82.6101L147.109 96.7842L149.642 95.972L145.096 81.7978L142.563 82.6101ZM148.375 95.0481H139.089V97.7081H148.375V95.0481ZM140.353 96.7921L144.996 82.618L142.468 81.79L137.825 95.9641L140.353 96.7921ZM171.103 81.9107V80.5807H169.773V81.9107H171.103ZM163.771 81.9107H165.101V80.5807H163.771V81.9107ZM162.441 106.447C162.441 107.96 162.932 109.275 163.88 110.214C164.822 111.148 166.096 111.589 167.437 111.589V108.929C166.676 108.929 166.117 108.686 165.752 108.324C165.392 107.968 165.101 107.377 165.101 106.447H162.441ZM167.437 111.589C168.778 111.589 170.051 111.148 170.994 110.214C171.941 109.275 172.433 107.96 172.433 106.447H169.773C169.773 107.377 169.482 107.968 169.122 108.324C168.757 108.686 168.197 108.929 167.437 108.929V111.589ZM172.433 106.447V81.9107H169.773V106.447H172.433ZM171.103 83.2407H176.43V80.5807H171.103V83.2407ZM176.43 83.2407C177.958 83.2407 179.174 82.6673 179.987 81.7068C180.77 80.7814 181.084 79.6117 181.084 78.5383H178.424C178.424 79.1267 178.249 79.6431 177.956 79.9886C177.694 80.2989 177.248 80.5807 176.43 80.5807V83.2407ZM181.084 78.5383C181.084 76.2241 179.391 73.8358 176.43 73.8358V76.4958C177.673 76.4958 178.424 77.4311 178.424 78.5383H181.084ZM176.43 73.8358H158.444V76.4958H176.43V73.8358ZM158.444 73.8358C155.483 73.8358 153.79 76.2241 153.79 78.5383H156.45C156.45 77.4311 157.201 76.4958 158.444 76.4958V73.8358ZM153.79 78.5383C153.79 79.6117 154.104 80.7814 154.887 81.7068C155.699 82.6673 156.915 83.2407 158.444 83.2407V80.5807C157.626 80.5807 157.18 80.2989 156.917 79.9886C156.625 79.6431 156.45 79.1267 156.45 78.5383H153.79ZM158.444 83.2407H163.771V80.5807H158.444V83.2407ZM162.441 81.9107V106.447H165.101V81.9107H162.441ZM179.811 92.5658C179.811 103.307 187.192 111.882 197.954 111.882V109.222C188.873 109.222 182.471 102.06 182.471 92.5658H179.811ZM197.954 111.882C199.854 111.882 202.775 111.605 205.273 110.674C207.707 109.768 210.282 108.007 210.282 104.785H207.622C207.622 106.255 206.506 107.377 204.345 108.182C202.249 108.962 199.672 109.222 197.954 109.222V111.882ZM210.282 104.785C210.282 103.9 209.909 102.789 209.217 101.89C208.493 100.95 207.326 100.131 205.726 100.131V102.791C206.325 102.791 206.771 103.073 207.11 103.513C207.481 103.995 207.622 104.546 207.622 104.785H210.282ZM205.726 100.131C204.995 100.131 204.342 100.32 203.767 100.54C203.234 100.745 202.606 101.047 202.097 101.268C201.01 101.741 199.757 102.184 197.954 102.184V104.844C200.257 104.844 201.888 104.26 203.159 103.707C203.83 103.415 204.249 103.204 204.72 103.024C205.148 102.86 205.455 102.791 205.726 102.791V100.131ZM197.954 102.184C195.359 102.184 193.448 101.127 192.153 99.4742C190.83 97.7857 190.096 95.395 190.096 92.7124H187.436C187.436 95.846 188.29 98.8561 190.059 101.114C191.855 103.408 194.538 104.844 197.954 104.844V102.184ZM190.096 92.7124C190.096 89.9448 190.824 87.4757 192.147 85.733C193.44 84.0296 195.348 82.9475 197.954 82.9475V80.2875C194.5 80.2875 191.814 81.7713 190.028 84.1247C188.271 86.4388 187.436 89.5171 187.436 92.7124H190.096ZM197.954 82.9475C199.794 82.9475 200.995 83.3239 202.002 83.7133C202.933 84.0734 204.109 84.6581 205.432 84.6581V81.9981C204.752 81.9981 204.242 81.7275 202.961 81.2323C201.757 80.7664 200.221 80.2875 197.954 80.2875V82.9475ZM205.432 84.6581C208.12 84.6581 209.793 82.3942 209.793 80.0534H207.133C207.133 81.2317 206.362 81.9981 205.432 81.9981V84.6581ZM209.793 80.0534C209.793 77.0221 207.319 75.3364 205.02 74.4606C202.642 73.5547 199.843 73.2493 197.954 73.2493V75.9093C199.634 75.9093 202.089 76.1904 204.073 76.9463C206.136 77.7323 207.133 78.7837 207.133 80.0534H209.793ZM197.954 73.2493C187.143 73.2493 179.811 81.7763 179.811 92.5658H182.471C182.471 83.0227 188.825 75.9093 197.954 75.9093V73.2493ZM220.84 95.7916V94.4616H219.51V95.7916H220.84ZM236.188 95.7916H237.518V94.4616H236.188V95.7916ZM236.188 89.0467V90.3767H237.518V89.0467H236.188ZM220.84 89.0467H219.51V90.3767H220.84V89.0467ZM212.179 106.447C212.179 107.96 212.67 109.275 213.618 110.214C214.56 111.148 215.833 111.589 217.175 111.589V108.929C216.414 108.929 215.855 108.686 215.49 108.324C215.13 107.968 214.839 107.377 214.839 106.447H212.179ZM217.175 111.589C218.516 111.589 219.789 111.148 220.732 110.214C221.679 109.275 222.17 107.96 222.17 106.447H219.51C219.51 107.377 219.22 107.968 218.86 108.324C218.495 108.686 217.935 108.929 217.175 108.929V111.589ZM222.17 106.447V95.7916H219.51V106.447H222.17ZM220.84 97.1216H236.188V94.4616H220.84V97.1216ZM234.858 95.7916V106.447H237.518V95.7916H234.858ZM234.858 106.447C234.858 107.96 235.349 109.275 236.296 110.214C237.239 111.148 238.512 111.589 239.853 111.589V108.929C239.093 108.929 238.533 108.686 238.168 108.324C237.808 107.968 237.518 107.377 237.518 106.447H234.858ZM239.853 111.589C241.194 111.589 242.468 111.148 243.41 110.214C244.358 109.275 244.849 107.96 244.849 106.447H242.189C242.189 107.377 241.898 107.968 241.538 108.324C241.173 108.686 240.614 108.929 239.853 108.929V111.589ZM244.849 106.447V78.6849H242.189V106.447H244.849ZM244.849 78.6849C244.849 77.1712 244.358 75.856 243.41 74.9174C242.468 73.9838 241.194 73.5426 239.853 73.5426V76.2026C240.614 76.2026 241.173 76.4456 241.538 76.8072C241.898 77.1638 242.189 77.7547 242.189 78.6849H244.849ZM239.853 73.5426C238.512 73.5426 237.239 73.9838 236.296 74.9174C235.349 75.856 234.858 77.1712 234.858 78.6849H237.518C237.518 77.7547 237.808 77.1638 238.168 76.8072C238.533 76.4456 239.093 76.2026 239.853 76.2026V73.5426ZM234.858 78.6849V89.0467H237.518V78.6849H234.858ZM236.188 87.7167H220.84V90.3767H236.188V87.7167ZM222.17 89.0467V78.6849H219.51V89.0467H222.17ZM222.17 78.6849C222.17 77.1712 221.679 75.856 220.732 74.9174C219.789 73.9838 218.516 73.5426 217.175 73.5426V76.2026C217.935 76.2026 218.495 76.4456 218.86 76.8072C219.22 77.1638 219.51 77.7547 219.51 78.6849H222.17ZM217.175 73.5426C215.833 73.5426 214.56 73.9838 213.618 74.9174C212.67 75.856 212.179 77.1712 212.179 78.6849H214.839C214.839 77.7547 215.13 77.1638 215.49 76.8072C215.855 76.4456 216.414 76.2026 217.175 76.2026V73.5426ZM212.179 78.6849V106.447H214.839V78.6849H212.179Z" fill="#F26E90"/>
</g>
<defs>
<filter id="filter0" x="0.669067" y="15.8726" width="251.85" height="103.68" filterUnits="userSpaceOnUse" color-interpolation-filters="sRGB">
<feFlood flood-opacity="0" result="BackgroundImageFix"/>
<feColorMatrix in="SourceAlpha" type="matrix" values="0 0 0 0 0 0 0 0 0 0 0 0 0 0 0 0 0 0 127 0" result="hardAlpha"/>
<feOffset/>
<feGaussianBlur stdDeviation="4.5"/>
<feComposite in2="hardAlpha" operator="out"/>
<feColorMatrix type="matrix" values="0 0 0 0 1 0 0 0 0 0.413636 0 0 0 0 0.561993 0 0 0 0.9 0"/>
<feBlend mode="normal" in2="BackgroundImageFix" result="effect1_dropShadow_920:5590"/>
<feBlend mode="normal" in="SourceGraphic" in2="effect1_dropShadow_920:5590" result="shape"/>
<feColorMatrix in="SourceAlpha" type="matrix" values="0 0 0 0 0 0 0 0 0 0 0 0 0 0 0 0 0 0 127 0" result="hardAlpha"/>
<feOffset/>
<feGaussianBlur stdDeviation="2.9093"/>
<feComposite in2="hardAlpha" operator="arithmetic" k2="-1" k3="1"/>
<feColorMatrix type="matrix" values="0 0 0 0 0.904463 0 0 0 0 0.170614 0 0 0 0 0.449683 0 0 0 1 0"/>
<feBlend mode="normal" in2="shape" result="effect2_innerShadow_920:5590"/>
</filter>
<filter id="filter1_if_920:5590" x="7.17907" y="22.3826" width="238.83" height="90.6597" filterUnits="userSpaceOnUse" color-interpolation-filters="sRGB">
<feFlood flood-opacity="0" result="BackgroundImageFix"/>
<feBlend mode="normal" in="SourceGraphic" in2="BackgroundImageFix" result="shape"/>
<feColorMatrix in="SourceAlpha" type="matrix" values="0 0 0 0 0 0 0 0 0 0 0 0 0 0 0 0 0 0 127 0" result="hardAlpha"/>
<feOffset/>
<feGaussianBlur stdDeviation="9.5"/>
<feComposite in2="hardAlpha" operator="arithmetic" k2="-1" k3="1"/>
<feColorMatrix type="matrix" values="0 0 0 0 0.913725 0 0 0 0 0.509804 0 0 0 0 0.607843 0 0 0 1 0"/>
<feBlend mode="normal" in2="shape" result="effect1_innerShadow_920:5590"/>
<feGaussianBlur stdDeviation="1.245" result="effect2_foregroundBlur_920:5590"/>
</filter>
</defs>
</svg>
