<svg width="88" height="12" viewBox="0 0 88 12" fill="none" xmlns="http://www.w3.org/2000/svg">
<path d="M11.7624 1.0313H9.79761L6.03963 6.69166L2.26606 1.0313H0.316895V11.6347H2.95216L2.93657 6.28623L5.30675 9.95065V9.96625H6.77252V9.95065L9.1271 6.31742V11.6347H11.7624V1.0313Z" fill="#9E9CB4"/>
<path d="M21.089 7.68963C21.089 5.41301 19.4205 3.90046 17.2218 3.90046C14.8049 3.90046 13.1988 5.55335 13.1988 7.84556C13.1988 10.1534 14.8516 11.8063 17.331 11.8063C19.2022 11.8063 20.6523 10.8239 21.011 9.26455H18.5161C18.2978 9.6076 17.8923 9.81031 17.3622 9.81031C16.3954 9.81031 15.8652 9.28014 15.6625 8.59404H21.0578L21.0422 8.54726C21.089 8.26658 21.089 7.97031 21.089 7.68963ZM17.2218 5.84962C18.0327 5.84962 18.5784 6.28623 18.7188 7.11268H15.6313C15.8184 6.3486 16.3642 5.84962 17.2218 5.84962Z" fill="#9E9CB4"/>
<path d="M23.7384 2.8869C24.5493 2.8869 25.2198 2.27876 25.2198 1.46791C25.2198 0.641463 24.5493 0.0333252 23.7384 0.0333252C22.912 0.0333252 22.2571 0.641463 22.2571 1.46791C22.2571 2.27876 22.912 2.8869 23.7384 2.8869ZM25.0171 4.07199H22.491V11.6347H25.0171V4.07199Z" fill="#9E9CB4"/>
<path d="M29.3036 0.563496H26.7775V11.6347H29.3036V0.563496Z" fill="#9E9CB4"/>
<path d="M32.3449 2.8869C33.1558 2.8869 33.8263 2.27876 33.8263 1.46791C33.8263 0.641463 33.1558 0.0333252 32.3449 0.0333252C31.5185 0.0333252 30.8636 0.641463 30.8636 1.46791C30.8636 2.27876 31.5185 2.8869 32.3449 2.8869ZM33.6236 4.07199H31.0975V11.6347H33.6236V4.07199Z" fill="#9E9CB4"/>
<path d="M39.7813 0.797395C37.2864 0.797395 35.5711 2.13842 35.5711 4.2591C35.5711 5.94318 36.5535 6.92556 38.643 7.37776L40.3894 7.76759C41.2939 7.93912 41.5122 8.31336 41.5122 8.672C41.5122 9.24896 40.9976 9.6076 40.0152 9.6076C38.7677 9.6076 37.9569 9.04624 37.7854 8.11065H35.1501C35.3996 10.7303 37.5515 11.853 39.9372 11.853C42.5881 11.853 44.3345 10.5276 44.3345 8.40692C44.3345 6.5825 43.0715 5.80284 41.1379 5.38182L39.6566 5.03877C38.8613 4.86724 38.4403 4.61775 38.4403 4.0408C38.4403 3.35469 39.0484 2.98046 39.9528 2.98046C41.0288 2.98046 41.5278 3.52622 41.6681 4.32148H44.319C44.0539 1.46791 41.4966 0.797395 39.7813 0.797395Z" fill="#9E9CB4"/>
<path d="M53.3103 7.68963C53.3103 5.41301 51.6418 3.90046 49.4431 3.90046C47.0262 3.90046 45.4201 5.55335 45.4201 7.84556C45.4201 10.1534 47.073 11.8063 49.5523 11.8063C51.4235 11.8063 52.8737 10.8239 53.2323 9.26455H50.7374C50.5191 9.6076 50.1137 9.81031 49.5835 9.81031C48.6167 9.81031 48.0865 9.28014 47.8838 8.59404H53.2791L53.2635 8.54726C53.3103 8.26658 53.3103 7.97031 53.3103 7.68963ZM49.4431 5.84962C50.254 5.84962 50.7998 6.28623 50.9401 7.11268H47.8526C48.0398 6.3486 48.5855 5.84962 49.4431 5.84962Z" fill="#9E9CB4"/>
<path d="M62.7106 4.07199H60.1845V4.47741C59.6231 4.11877 58.937 3.90046 58.1105 3.90046C56.0678 3.90046 54.3526 5.58453 54.3526 7.84556C54.3526 10.091 56.0678 11.7907 58.1105 11.7907C58.937 11.7907 59.6231 11.5724 60.1845 11.2137V11.6347H62.7106V4.07199ZM58.6095 9.71675C57.5804 9.71675 56.8319 8.89031 56.8319 7.84556C56.8319 6.80081 57.5804 5.95877 58.6095 5.95877C59.1709 5.95877 59.7167 6.1303 60.1845 6.67606V9.01506C59.7167 9.56082 59.1709 9.71675 58.6095 9.71675Z" fill="#9E9CB4"/>
<path d="M69.5501 3.94724C68.4274 3.94724 67.6166 4.30588 66.9461 4.88284V4.07199H64.42V11.6347H66.9461V7.31539C67.5386 6.72284 68.3183 6.39538 69.5501 6.3486V3.94724Z" fill="#9E9CB4"/>
<path d="M74.3702 9.66997C73.2942 9.66997 72.6393 8.87472 72.6393 7.84556C72.6393 6.8164 73.2942 6.03674 74.3702 6.03674C75.1498 6.03674 75.7268 6.48894 75.8515 7.17505H78.2373C78.0658 5.22589 76.4597 3.90046 74.3702 3.90046C71.9844 3.90046 70.2379 5.55335 70.2379 7.84556C70.2379 10.1534 71.9844 11.8063 74.3702 11.8063C76.4597 11.8063 78.0658 10.4808 78.2373 8.53166H75.8515C75.7268 9.21777 75.1498 9.66997 74.3702 9.66997Z" fill="#9E9CB4"/>
<path d="M84.19 3.83809C83.3792 3.83809 82.7086 4.10317 82.1005 4.58656V0.563496H79.5744V11.6347H82.1005V6.89437C82.5371 6.39538 83.0361 6.1303 83.5039 6.1303C84.3303 6.1303 84.8761 6.64488 84.8761 7.72081V11.6347H87.4178V7.31539C87.4178 5.16352 86.108 3.83809 84.19 3.83809Z" fill="#9E9CB4"/>
</svg>
