<svg width="23" height="20" viewBox="0 0 23 20" fill="none" xmlns="http://www.w3.org/2000/svg">
<path d="M22.5801 4.66803C22.4163 4.45751 22.159 4.34056 21.8783 4.34056H9.38737C8.87276 4.34056 8.47511 4.7616 8.47511 5.25282C8.47511 5.74403 8.89615 6.16508 9.38737 6.16508H20.7555L19.7263 11.8492C19.5158 12.9953 18.51 13.8374 17.3404 13.8374H8.45172L5.99563 1.36986C5.90207 0.948816 5.5278 0.621338 5.08337 0.621338H1.48111C0.9665 0.621338 0.568848 1.04238 0.568848 1.5336C0.568848 2.02482 0.989891 2.44586 1.48111 2.44586H4.33485L6.74415 14.6561C6.22954 15.1707 5.90206 15.8725 5.90206 16.6444C5.90206 18.1882 7.1652 19.4513 8.70902 19.4513C10.2528 19.4513 11.516 18.1882 11.516 16.6444C11.516 16.2935 11.4458 15.9894 11.3522 15.6853H14.9311C14.8142 15.9894 14.7674 16.3169 14.7674 16.6444C14.7674 18.1882 16.0305 19.4513 17.5743 19.4513C19.1182 19.4513 20.3813 18.1882 20.3813 16.6444C20.3813 15.9894 20.1708 15.4046 19.7965 14.9368C20.7088 14.3053 21.3871 13.3462 21.5976 12.1766L22.8374 5.39316C22.814 5.15925 22.7438 4.87856 22.5801 4.66803ZM9.66807 16.6678C9.66807 17.2058 9.22363 17.6268 8.70902 17.6268C8.19441 17.6268 7.74998 17.1824 7.74998 16.6678C7.74998 16.1532 8.19441 15.7087 8.70902 15.7087C9.22363 15.7087 9.66807 16.1298 9.66807 16.6678ZM17.5509 17.6268C17.0129 17.6268 16.5919 17.1824 16.5919 16.6678C16.5919 16.1532 17.0363 15.7087 17.5509 15.7087C18.0655 15.7087 18.51 16.1532 18.51 16.6678C18.51 17.1824 18.0655 17.6268 17.5509 17.6268Z" fill="currentColor"/>
</svg>
