<svg width="31" height="31" viewBox="0 0 31 31" fill="none" xmlns="http://www.w3.org/2000/svg">
<path fill-rule="evenodd" clip-rule="evenodd" d="M15.3587 0C6.87631 0 0 6.87631 0 15.3587C0 23.841 6.87631 30.7173 15.3587 30.7173C23.841 30.7173 30.7173 23.841 30.7173 15.3587C30.7173 6.87631 23.841 0 15.3587 0ZM5.11956 10.8791H7.15938V19.7183H5.11956V10.8791ZM12.1644 10.8791L11.6052 15.0085L11.2592 12.7629C11.1584 12.0422 11.0619 11.4142 10.9699 10.8791H7.83932V19.7183H9.95424L9.96185 13.8819L10.852 19.7183H12.3584L13.2028 13.752L13.2104 19.7183H15.3187V10.8791H12.1644ZM18.7179 12.7177C18.6948 12.6053 18.6417 12.5224 18.5589 12.4698C18.4761 12.4172 18.3203 12.3909 18.0921 12.3909V18.1931C18.3932 18.1931 18.5787 18.1269 18.6483 17.9941C18.7179 17.8616 18.7527 17.5013 18.7527 16.9127V13.486C18.7527 13.0864 18.741 12.8304 18.7179 12.7177ZM19.6644 19.6283C19.4149 19.6884 19.0392 19.7183 18.5372 19.7183L15.9986 19.7183V10.8791H17.562C18.5762 10.8791 19.1597 10.9301 19.5171 11.0318C19.8746 11.1335 20.1466 11.3006 20.3327 11.5332C20.519 11.7659 20.6353 12.0248 20.6819 12.31C20.7284 12.5953 20.7582 13.1558 20.7582 13.9919V17.0962C20.7582 17.8884 20.7177 18.4183 20.6496 18.6852C20.5813 18.9526 20.4625 19.1615 20.293 19.3122C20.1232 19.4629 19.9138 19.5684 19.6644 19.6283ZM24.5609 17.4869C24.5609 17.9092 24.5387 18.1759 24.4944 18.2869C24.4499 18.398 24.2565 18.4538 24.11 18.4538C23.967 18.4538 23.8717 18.4003 23.8233 18.2927C23.7751 18.1854 23.7511 17.9402 23.7511 17.5569V15.2511C23.7511 14.8536 23.7723 14.6058 23.8148 14.5071C23.8572 14.4089 23.9498 14.3595 24.0926 14.3595C24.239 14.3595 24.4355 14.4156 24.4857 14.5284C24.5358 14.6412 24.5609 14.8821 24.5609 15.2508V17.4869ZM21.4381 10.8791V19.6041H23.5997L23.7493 19.0481C23.9448 19.2716 24.1603 19.4393 24.3962 19.5509C24.6319 19.6626 24.9839 19.7183 25.256 19.7183C25.6356 19.7183 25.9632 19.6242 26.2393 19.4363C26.5152 19.2482 26.6907 19.0259 26.7656 18.7697C26.8403 18.5134 26.8777 18.1239 26.8777 17.6007V15.1529C26.8777 14.6261 26.8651 14.2822 26.8403 14.121C26.8152 13.9598 26.7417 13.795 26.6191 13.6266C26.4965 13.4584 26.3184 13.3276 26.0845 13.2344C25.8508 13.141 25.5752 13.0944 25.2572 13.0944C24.9813 13.0944 24.6276 13.1463 24.3919 13.2491C24.1563 13.3519 23.9427 13.508 23.7511 13.7172V10.8791H21.4381Z" fill="currentColor"/>
</svg>
