<svg width="31" height="31" viewBox="0 0 31 31" fill="none" xmlns="http://www.w3.org/2000/svg">
<path fill-rule="evenodd" clip-rule="evenodd" d="M0.0927734 15.3587C0.0927734 6.87631 6.96909 0 15.4514 0C23.9338 0 30.8101 6.87631 30.8101 15.3587C30.8101 23.841 23.9338 30.7173 15.4514 30.7173C6.96909 30.7173 0.0927734 23.841 0.0927734 15.3587ZM15.4522 7.16738C13.2276 7.16738 12.9484 7.17711 12.0746 7.21687C11.2026 7.2568 10.6074 7.39486 10.0865 7.59743C9.54777 7.80665 9.09076 8.08652 8.63545 8.542C8.17981 8.9973 7.89993 9.45431 7.69003 9.99289C7.48695 10.5139 7.34872 11.1093 7.30947 11.981C7.27039 12.8548 7.26015 13.1341 7.26015 15.3588C7.26015 17.5834 7.27005 17.8617 7.30964 18.7355C7.34975 19.6075 7.48781 20.2028 7.6902 20.7236C7.89959 21.2624 8.17947 21.7194 8.63494 22.1747C9.09007 22.6303 9.54708 22.9109 10.0855 23.1201C10.6067 23.3227 11.2021 23.4607 12.074 23.5006C12.9477 23.5404 13.2267 23.5501 15.4512 23.5501C17.676 23.5501 17.9543 23.5404 18.8281 23.5006C19.7001 23.4607 20.296 23.3227 20.8172 23.1201C21.3558 22.9109 21.8121 22.6303 22.2673 22.1747C22.7229 21.7194 23.0028 21.2624 23.2127 20.7238C23.4141 20.2028 23.5523 19.6074 23.5932 18.7357C23.6325 17.8619 23.6427 17.5834 23.6427 15.3588C23.6427 13.1341 23.6325 12.8549 23.5932 11.9812C23.5523 11.1091 23.4141 10.5139 23.2127 9.99306C23.0028 9.45431 22.7229 8.9973 22.2673 8.542C21.8116 8.08635 21.356 7.80648 20.8167 7.59743C20.2945 7.39486 19.6989 7.2568 18.8269 7.21687C17.9531 7.17711 17.675 7.16738 15.4497 7.16738H15.4522Z" fill="currentColor"/>
<path fill-rule="evenodd" clip-rule="evenodd" d="M14.7174 8.64353C14.9355 8.64319 15.1788 8.64353 15.4522 8.64353C17.6393 8.64353 17.8985 8.65138 18.7622 8.69063C19.5609 8.72715 19.9943 8.86061 20.2831 8.97273C20.6653 9.12119 20.9379 9.29867 21.2244 9.58537C21.5111 9.87207 21.6886 10.1451 21.8374 10.5274C21.9495 10.8158 22.0831 11.2492 22.1195 12.0479C22.1587 12.9114 22.1673 13.1708 22.1673 15.3569C22.1673 17.543 22.1587 17.8023 22.1195 18.6659C22.083 19.4645 21.9495 19.898 21.8374 20.1864C21.6889 20.5686 21.5111 20.8408 21.2244 21.1274C20.9377 21.4141 20.6655 21.5915 20.2831 21.74C19.9947 21.8526 19.5609 21.9858 18.7622 22.0223C17.8987 22.0615 17.6393 22.0701 15.4522 22.0701C13.2649 22.0701 13.0057 22.0615 12.1422 22.0223C11.3436 21.9854 10.9101 21.852 10.6212 21.7398C10.2389 21.5914 9.96587 21.4139 9.67917 21.1272C9.39247 20.8405 9.21499 20.5681 9.06618 20.1857C8.95406 19.8973 8.82044 19.4638 8.78409 18.6652C8.74484 17.8017 8.73699 17.5423 8.73699 15.3548C8.73699 13.1674 8.74484 12.9094 8.78409 12.0459C8.82061 11.2472 8.95406 10.8137 9.06618 10.525C9.21465 10.1427 9.39247 9.86968 9.67917 9.58298C9.96587 9.29628 10.2389 9.1188 10.6212 8.97C10.9099 8.85736 11.3436 8.72425 12.1422 8.68756C12.8979 8.65343 13.1907 8.64319 14.7174 8.64149V8.64353ZM19.8247 10.0036C19.282 10.0036 18.8417 10.4434 18.8417 10.9863C18.8417 11.5289 19.282 11.9692 19.8247 11.9692C20.3674 11.9692 20.8077 11.5289 20.8077 10.9863C20.8077 10.4436 20.3674 10.0036 19.8247 10.0036ZM15.4522 11.1521C13.1291 11.1521 11.2456 13.0356 11.2456 15.3588C11.2456 17.6819 13.1291 19.5645 15.4522 19.5645C17.7753 19.5645 19.6581 17.6819 19.6581 15.3588C19.6581 13.0356 17.7753 11.1521 15.4522 11.1521Z" fill="currentColor"/>
<path fill-rule="evenodd" clip-rule="evenodd" d="M15.4522 12.6283C16.9601 12.6283 18.1827 13.8507 18.1827 15.3588C18.1827 16.8667 16.9601 18.0892 15.4522 18.0892C13.9441 18.0892 12.7218 16.8667 12.7218 15.3588C12.7218 13.8507 13.9441 12.6283 15.4522 12.6283Z" fill="currentColor"/>
</svg>
