<svg width="10" height="13" viewBox="0 0 10 13" fill="none" xmlns="http://www.w3.org/2000/svg">
<path d="M8.62164 10.8349C7.92916 10.2485 7.37732 9.51407 7.00692 8.68576C6.63652 7.85745 6.45702 6.95648 6.48171 6.04946C6.50639 5.14243 6.73463 4.25256 7.14953 3.44562C7.56444 2.63869 8.15542 1.93532 8.87876 1.38754C8.93165 1.35349 8.97425 1.30567 9.00199 1.24922C9.02973 1.19277 9.04155 1.12983 9.03619 1.06716C9.03084 1.00449 9.00849 0.944471 8.97157 0.893551C8.93465 0.842631 8.88455 0.802739 8.82665 0.778165C7.90071 0.339476 6.87858 0.142952 5.85597 0.206994C4.83337 0.271037 3.84374 0.593551 2.97977 1.14434C2.11579 1.69512 1.40573 2.45616 0.916064 3.35619C0.426402 4.25622 0.173161 5.26579 0.180054 6.29038C0.186947 7.31496 0.45375 8.32104 0.955479 9.2144C1.45721 10.1078 2.17745 10.8592 3.04876 11.3983C3.92007 11.9374 4.91394 12.2466 5.93731 12.2968C6.96069 12.3471 7.98008 12.1369 8.90004 11.6857C8.95429 11.6588 9.00064 11.6183 9.03455 11.5681C9.06845 11.5179 9.08876 11.4597 9.09349 11.3993C9.09822 11.339 9.08721 11.2784 9.06153 11.2235C9.03586 11.1686 8.99639 11.1214 8.94699 11.0863C8.8328 11.0071 8.72748 10.924 8.62164 10.8349Z" fill="#000"/>
</svg>
