<svg width="21" height="25" viewBox="0 0 21 25" fill="none" xmlns="http://www.w3.org/2000/svg">
<path fill-rule="evenodd" clip-rule="evenodd" d="M16.7327 0.805176C18.479 0.805176 19.9499 2.0152 20.2883 3.68357C20.6443 3.74441 20.9224 4.04171 20.9224 4.44144C20.9224 4.84562 20.6085 5.13926 20.2535 5.19937C19.9148 6.83364 18.4447 8.0777 16.6981 8.0777C14.9543 8.0777 13.4861 6.83757 13.1444 5.20713H1.72272C1.30142 5.20713 0.957031 4.86274 0.957031 4.44144C0.957031 4.02014 1.30142 3.67575 1.72272 3.67575H13.179C13.5207 2.04531 14.9889 0.805176 16.7327 0.805176ZM16.7327 6.54633C15.5631 6.54633 14.6278 5.61107 14.6278 4.44144C14.6278 3.27181 15.5631 2.33655 16.7327 2.33655C17.9024 2.33655 18.8376 3.27181 18.8376 4.44144C18.8376 5.61107 17.9024 6.54633 16.7327 6.54633Z" fill="#000"/>
<path fill-rule="evenodd" clip-rule="evenodd" d="M20.1913 19.7928H20.1481C19.8064 18.1624 18.3382 16.9222 16.5944 16.9222C14.8506 16.9222 13.3824 18.1624 13.0407 19.7928H1.72272C1.30142 19.7928 0.957031 20.1372 0.957031 20.5585C0.957031 20.9798 1.30142 21.3242 1.72272 21.3242H13.0061C13.3478 22.9546 14.816 24.1948 16.5598 24.1948C18.3036 24.1948 19.7718 22.9546 20.1135 21.3242H20.1567C20.578 21.3242 20.9224 20.9798 20.9224 20.5585C20.9224 20.1423 20.6174 19.7928 20.1913 19.7928ZM16.5598 22.698C15.3894 22.698 14.4549 21.7619 14.4549 20.6277V20.5585C14.4549 19.3896 15.424 18.4536 16.5598 18.4536C17.7294 18.4536 18.6647 19.3889 18.6647 20.5585C18.6647 21.7297 17.7279 22.698 16.5598 22.698Z" fill="#000"/>
<path fill-rule="evenodd" clip-rule="evenodd" d="M20.1913 11.7345H8.76965C8.42792 10.104 6.95974 8.86389 5.21592 8.86389C3.46934 8.86389 1.99928 10.1079 1.66058 11.7422C1.30556 11.8023 0.991709 12.096 0.991709 12.5001C0.991709 12.9034 1.27399 13.2001 1.66073 13.2588C1.99972 14.8927 3.4696 16.1364 5.21592 16.1364C6.95974 16.1364 8.42792 14.8963 8.76965 13.2658H20.1913C20.6126 13.2658 20.957 12.9214 20.957 12.5001C20.957 12.0789 20.6126 11.7345 20.1913 11.7345ZM5.18134 14.605C4.01171 14.605 3.07645 13.6698 3.07645 12.5001C3.07645 11.3305 4.01171 10.3953 5.18134 10.3953C6.35096 10.3953 7.28623 11.3305 7.28623 12.5001C7.28623 13.6698 6.35096 14.605 5.18134 14.605Z" fill="#000"/>
</svg>
