<svg width="12" height="11" viewBox="0 0 12 11" fill="none" xmlns="http://www.w3.org/2000/svg">
<path d="M6.24189 0.182608L7.36118 3.81107C7.39381 3.91686 7.48781 3.98854 7.59391 3.98854H11.2438C11.4883 3.98854 11.5984 4.32172 11.3905 4.47549L8.44032 6.72373C8.35455 6.7891 8.31875 6.90493 8.35168 7.01057L9.48271 10.6393C9.55609 10.8828 9.28704 11.0878 9.09137 10.934L6.14104 8.69792C6.0553 8.63293 5.93941 8.63309 5.85383 8.69831L2.90324 10.9469C2.70757 11.1006 2.42629 10.8956 2.51189 10.6521L3.64292 7.02339C3.67585 6.91775 3.64005 6.80191 3.55428 6.73655L0.604092 4.48831C0.40842 4.33453 0.506256 4.00135 0.750846 4.00135H4.40051C4.50669 4.00135 4.60075 3.92956 4.63331 3.82365L5.75271 0.182608C5.82609 -0.0608693 6.16851 -0.0608693 6.24189 0.182608Z" fill="#000"/>
</svg>
