<svg width="31" height="31" viewBox="0 0 31 31" fill="none" xmlns="http://www.w3.org/2000/svg">
<path fill-rule="evenodd" clip-rule="evenodd" d="M0.186523 15.3587C0.186523 6.87631 7.06284 0 15.5452 0C24.0276 0 30.9039 6.87631 30.9039 15.3587C30.9039 23.841 24.0276 30.7173 15.5452 30.7173C7.06284 30.7173 0.186523 23.841 0.186523 15.3587ZM15.0852 12.4837L15.1174 13.0152L14.5803 12.9501C12.625 12.7006 10.9169 11.8547 9.46658 10.4339L8.75753 9.72888L8.5749 10.2495C8.18815 11.41 8.43524 12.6356 9.24097 13.4598C9.6707 13.9154 9.57401 13.9804 8.83274 13.7093C8.5749 13.6225 8.3493 13.5575 8.32781 13.59C8.25261 13.6659 8.51044 14.6529 8.71456 15.0433C8.99388 15.5856 9.56326 16.1171 10.1864 16.4316L10.7128 16.681L10.0897 16.6919C9.48806 16.6919 9.46658 16.7027 9.53104 16.9305C9.7459 17.6355 10.5946 18.3838 11.54 18.7092L12.2061 18.937L11.6259 19.284C10.7665 19.783 9.75664 20.0649 8.74679 20.0866C8.26335 20.0975 7.86586 20.1409 7.86586 20.1734C7.86586 20.2819 9.17651 20.8892 9.93927 21.1278C12.2275 21.8328 14.9455 21.5291 16.9867 20.3252C18.437 19.4684 19.8874 17.7656 20.5642 16.1171C20.9294 15.2386 21.2947 13.6334 21.2947 12.8633C21.2947 12.3644 21.3269 12.2993 21.9285 11.7028C22.2831 11.3558 22.6161 10.9762 22.6806 10.8677C22.788 10.6616 22.7772 10.6616 22.2293 10.846C21.3162 11.1714 21.1873 11.128 21.6385 10.6399C21.9715 10.2929 22.369 9.66381 22.369 9.47943C22.369 9.44689 22.2079 9.50112 22.0252 9.59874C21.8319 9.70719 21.4021 9.86988 21.0798 9.96749L20.4997 10.1519L19.9733 9.79396C19.6832 9.59873 19.275 9.38182 19.0601 9.31674C18.5122 9.1649 17.6743 9.18659 17.1801 9.36013C15.8372 9.84819 14.9885 11.1063 15.0852 12.4837Z" fill="currentColor"/>
</svg>
